<svg xmlns="http://www.w3.org/2000/svg" viewBox="0 0 500 500"><!--Select--><g id="Floor--inject-42"><path id="floor--inject-42" d="M104.74,442c80.57,42.47,211.2,42.47,291.77,0s80.58-111.31,0-153.77-211.2-42.47-291.78,0S24.16,399.51,104.74,442Z" style="fill:#f5f5f5"></path></g><g id="Tabs--inject-42"><g id="Tab--inject-42"><path d="M74.85,386.33l-.76-.44a4.86,4.86,0,0,1-2.2-3.8V125.83a4.89,4.89,0,0,1,2.2-3.81L239.21,26.7a4.87,4.87,0,0,1,4.4,0l.75.44a4.85,4.85,0,0,1,2.2,3.81V287.2a4.85,4.85,0,0,1-2.2,3.81L79.25,386.33A4.87,4.87,0,0,1,74.85,386.33Z" style="fill:#FCD236"></path><path d="M246.54,30.6c-.15-1.14-1.07-1.56-2.17-.93L79.24,125a4.54,4.54,0,0,0-1.55,1.64l-5.15-3A4.6,4.6,0,0,1,74.1,122L239.21,26.7a4.87,4.87,0,0,1,4.4,0l.76.44A5,5,0,0,1,246.54,30.6Z" style="fill:#fff;opacity:0.4"></path><path d="M78.88,386.5a4.89,4.89,0,0,1-4-.17l-.77-.44a4.85,4.85,0,0,1-2.19-3.81V125.83a4.42,4.42,0,0,1,.64-2.16l5.15,3A4.61,4.61,0,0,0,77,128.8V385.06C77,386.32,77.84,386.91,78.88,386.5Z" style="opacity:0.1"></path></g><g id="tabs--inject-42"><g id="tab--inject-42"><path d="M96.52,293.65l-.76-.44a4.86,4.86,0,0,1-2.2-3.8V243.35a4.88,4.88,0,0,1,2.2-3.81l149.91-86.63a4.85,4.85,0,0,1,4.39,0l.76.44a4.85,4.85,0,0,1,2.2,3.81v46.06a4.83,4.83,0,0,1-2.2,3.8l-149.9,86.63A4.87,4.87,0,0,1,96.52,293.65Z" style="fill:#ebebeb"></path><path d="M253,156.81c-.15-1.14-1.07-1.56-2.18-.93L100.91,242.52a4.54,4.54,0,0,0-1.55,1.64l-5.15-3a4.51,4.51,0,0,1,1.56-1.65l149.9-86.63a4.85,4.85,0,0,1,4.39,0l.76.44A4.93,4.93,0,0,1,253,156.81Z" style="fill:#fafafa"></path><path d="M100.54,293.83a4.87,4.87,0,0,1-4-.18l-.78-.43a4.9,4.9,0,0,1-2.18-3.81V243.35a4.42,4.42,0,0,1,.64-2.16l5.15,3a4.61,4.61,0,0,0-.65,2.16v46.07C98.71,293.64,99.51,294.23,100.54,293.83Z" style="fill:#e0e0e0"></path><path d="M122.11,239.43c8.55-4.94,15.48-1.1,15.48,8.58s-6.94,21.44-15.5,26.27-15.49,1-15.49-8.58S113.56,244.37,122.11,239.43Z" style="fill:#FCD236"></path></g><g id="tab--inject-42"><path d="M96.52,356.07l-.76-.44a4.86,4.86,0,0,1-2.2-3.8V305.77a4.88,4.88,0,0,1,2.2-3.81l149.91-86.63a4.85,4.85,0,0,1,4.39,0l.76.44a4.84,4.84,0,0,1,2.2,3.81v46.06a4.83,4.83,0,0,1-2.2,3.8l-149.9,86.63A4.87,4.87,0,0,1,96.52,356.07Z" style="fill:#ebebeb"></path><path d="M253,219.22c-.15-1.14-1.07-1.55-2.18-.92L100.91,304.94a4.59,4.59,0,0,0-1.55,1.63l-5.15-3A4.44,4.44,0,0,1,95.77,302l149.9-86.63a4.85,4.85,0,0,1,4.39,0l.76.44A4.91,4.91,0,0,1,253,219.22Z" style="fill:#fafafa"></path><path d="M100.54,356.24a4.87,4.87,0,0,1-4-.17l-.78-.44a4.87,4.87,0,0,1-2.18-3.81V305.77a4.39,4.39,0,0,1,.64-2.16l5.15,3a4.68,4.68,0,0,0-.65,2.17v46.07C98.71,356.06,99.51,356.65,100.54,356.24Z" style="fill:#e0e0e0"></path><path d="M122.11,301.85c8.55-4.94,15.48-1.1,15.48,8.58s-6.94,21.44-15.5,26.27-15.49,1-15.49-8.58S113.56,306.78,122.11,301.85Z" style="fill:#FCD236"></path></g><g id="tab--inject-42"><path d="M96.52,189.27l-.76-.44a4.88,4.88,0,0,1-2.2-3.81V139a4.86,4.86,0,0,1,2.2-3.8L245.67,48.53a4.85,4.85,0,0,1,4.39,0l.76.44a4.83,4.83,0,0,1,2.2,3.8V98.83a4.85,4.85,0,0,1-2.2,3.81l-149.9,86.63A4.87,4.87,0,0,1,96.52,189.27Z" style="fill:#ebebeb"></path><path d="M253,52.42c-.15-1.14-1.07-1.55-2.18-.92L100.91,138.14a4.43,4.43,0,0,0-1.55,1.63l-5.15-3a4.41,4.41,0,0,1,1.56-1.64l149.9-86.63a4.85,4.85,0,0,1,4.39,0l.76.44A4.91,4.91,0,0,1,253,52.42Z" style="fill:#fafafa"></path><path d="M100.54,189.44a4.87,4.87,0,0,1-4-.17l-.78-.44A4.87,4.87,0,0,1,93.57,185V139a4.42,4.42,0,0,1,.64-2.17l5.15,3a4.64,4.64,0,0,0-.65,2.17V188C98.71,189.26,99.51,189.84,100.54,189.44Z" style="fill:#e0e0e0"></path><path d="M122.11,135.05c8.55-4.94,15.48-1.1,15.48,8.57s-6.94,21.44-15.5,26.28-15.49,1-15.49-8.58S113.56,140,122.11,135.05Z" style="fill:#FCD236"></path></g><g id="tab--inject-42"><path d="M107.06,247.75l-.76-.44a4.85,4.85,0,0,1-2.2-3.81V197.44a4.87,4.87,0,0,1,2.2-3.81L256.2,107a4.87,4.87,0,0,1,4.4,0l.76.43a4.89,4.89,0,0,1,2.2,3.81v46.06a4.88,4.88,0,0,1-2.2,3.81L111.45,247.75A4.85,4.85,0,0,1,107.06,247.75Z" style="fill:#37474f"></path><path d="M263.54,110.9c-.15-1.14-1.07-1.56-2.18-.92L111.45,196.62a4.54,4.54,0,0,0-1.56,1.63l-5.14-3a4.49,4.49,0,0,1,1.55-1.65L256.2,107a4.87,4.87,0,0,1,4.4,0l.76.43A4.93,4.93,0,0,1,263.54,110.9Z" style="fill:#455a64"></path><path d="M111.08,247.92a4.89,4.89,0,0,1-4-.17l-.77-.44a4.87,4.87,0,0,1-2.19-3.81V197.44a4.43,4.43,0,0,1,.65-2.16l5.14,3a4.59,4.59,0,0,0-.64,2.16v46.07C109.25,247.73,110,248.32,111.08,247.92Z" style="fill:#263238"></path><path d="M132.65,193.52c8.55-4.93,15.48-1.09,15.48,8.58s-6.94,21.44-15.5,26.28-15.5,1-15.49-8.58S124.1,198.46,132.65,193.52Z" style="fill:#f5f5f5"></path><path d="M133,221.35a1.68,1.68,0,0,1-1.9.09l-6.8-5.14c-.91-.69-.8-2.58.25-4.24s2.64-2.44,3.54-1.75l4.74,3.59L146,185.61c.82-1.77,2.39-3,3.51-2.65s1.36,2,.53,3.74L135,219a5.43,5.43,0,0,1-1.93,2.29Z" style="fill:#FCD236"></path></g></g></g><g id="character-1--inject-42"><path d="M343.51,268.34c.77-28.57-1.52-35.41-9.12-40.64l-2.95,16.55s3.46,19.5,3.09,26c-.32,5.71-.88,12.85-2.23,17.46a3.48,3.48,0,0,1-1.51,2c-1.94,1.21-2.72,2.45-4.18,4-1.14,1.2-2.11,1.49-2,1.87a1.89,1.89,0,0,0,2.41.86,13.61,13.61,0,0,0,2.74-1.49,17.4,17.4,0,0,1-2.81,4.83c-2.72,3.33-2.84,5.38,2.65,5.43,3.43,0,6.17-2.09,8.76-9.66a62.16,62.16,0,0,0,2.41-8.51C342.13,279.49,343.39,272.94,343.51,268.34Z" style="fill:#b16668"></path><path d="M328,225.53c3.63-.53,8.56.23,11.75,5.93s4,15.51,4.33,25.26c0,0-6.33,5.29-13.93,2.69Z" style="fill:#FCD236"></path><path d="M328,225.53c3.63-.53,8.56.23,11.75,5.93s4,15.51,4.33,25.26c0,0-6.33,5.29-13.93,2.69Z" style="opacity:0.1"></path><path d="M338.67,382.64c.57.22.72,1.32.81,3.5.06,1.65.42,4.54-1.52,5.11s-4.77.28-6-1.27c-1.55-2-2.59-3.66-4.8-6-1.92-2.06-4-4-4.76-6.86-.7-2.61-.12-3.74,1.66-4.5,2.44-1,6.29,2.37,8.2,2.9C333.9,376,338.09,382.42,338.67,382.64Z" style="fill:#263238"></path><path d="M338.67,380.62v2.68a6.57,6.57,0,0,1-6.78.18c-.11-.26-.7-3.83-.7-3.83Z" style="fill:#b16668"></path><path d="M317,398.09a44.32,44.32,0,0,1,1.18,4.37c.33,1.62.8,4.33.24,5.55s-2.78,2-6.22,2c-2.22,0-5.68,1.49-8.05,2.81s-7.55,1.91-10.14,1.61c-3.05-.36-6.21-2.13-6.71-3.4s.16-2.57,7.36-5.64c.07,0,10-3.26,13.48-7.1Z" style="fill:#263238"></path><path d="M317,395.19s0,2,0,3.13-1.33,2.83-4.81,2.7c-2.44-.08-4.14-.74-4-2.75v-2.9Z" style="fill:#b16668"></path><path d="M340.41,345.05a73.36,73.36,0,0,0-3.16-14s.95-12,1.41-23.46c.5-12.34,0-27.84.21-30.92,0,0-39.8-8-40.51,6.2s1.57,50.56,2,56.82,1.55,11.81,2.85,22,4.85,33.68,4.85,33.68a9.4,9.4,0,0,0,8.86-.18s2.8-28.51,2.51-35.74a61.8,61.8,0,0,0-2.74-15.77s.75-11.76,1.42-22,1.37-15.14,1.52-19.58l.86-.43s.87,17.64,1.34,23.91,1.47,12.27,3.28,23.9c1.58,10.1,6.26,31.45,6.26,31.45,4.54,2.46,7.26-.32,7.26-.32S341.64,353.81,340.41,345.05Z" style="fill:#37474f"></path><path d="M319.67,302.11s9.66-4.76,14.49-9.05c0,0-4.49,6.32-10.38,9.12,0,0-2.09,21.92-2.08,21.48l-1.21-21.59Z" style="fill:#263238"></path><polygon points="311.08 221.01 313.44 233.97 325.14 233.12 322.69 218.42 311.08 221.01" style="fill:#b16668"></polygon><path d="M337.51,232.17c-1.16-3.52-5.63-7.36-10.1-6.53a132.64,132.64,0,0,0-19.6,4.89c-4.1,1.47-7.83,5-8.17,18.48,0,0-1.37,31.42-1.39,37.49,10.28,4.07,21,3.95,26.89,2.66,12.32-2.69,13.8-7.8,13.8-7.8s.16-22.59-.21-32.35C338.42,240.72,338.31,234.59,337.51,232.17Z" style="fill:#FCD236"></path><path d="M302.05,205.24s-3,4.74-2.61,5.19,2.63.81,2.63.81Z" style="fill:#b16668"></path><path d="M310.29,192.15c-6.19,1.45-7.92,4.22-8.29,14.12-.38,10.34.75,13.56,2.14,14.92.93.92,6,1,8.58.21,3.19-1,10.4-3.7,13.68-9,3.86-6.2,4.73-14.5.37-17.81C320.63,190,312.81,191.55,310.29,192.15Z" style="fill:#b16668"></path><path d="M311.21,221.72c2.1-1.69,1.91-2.78,1.91-2.78-1.5,1.41-7.08,2.61-9,2.25C304.91,222,308.54,222.12,311.21,221.72Z" style="fill:#9a4a4d"></path><path d="M302.07,194.72c1.82,3.11,5.76,4.6,5.76,4.6,1.19,1.35.53,6.63,2.62,7.46,0,0,.9-3.84,4.13-3.43s3.78,4.53,1.79,7.08-3.9,1.64-3.9,1.64.22,5.45,2.71,8.49c0,0,2.77.83,7.8-.37,3.1-.73,7.41-4.72,9.16-8.87,3.72-8.8,3.81-16.64-1.8-18.86-.69-4-3.89-5.73-7.51-6.48-7.79-1.6-12.81,3.26-18.81,2.84C300.58,188.58,299.94,191.07,302.07,194.72Z" style="fill:#263238"></path><path d="M330.47,193.8l3.67-2.28a2.16,2.16,0,1,0-3.67,2.28Z" style="fill:#263238"></path><path d="M308.13,230.48s-5.82,1.08-8.86,5.68-16.2,21.1-16.2,21.1-18.92-9.47-19.85-10.6-.41-3.39-.15-4.64.68-4,1-4.8c.48-1.37-1.53-1-2.72.27s-1.71,3.76-2.3,4.19-5.1-4.75-7.28-7.25-3.21-4.25-4.68-3.22c-1.05.75-.37,2.23,1.19,4.37a24.15,24.15,0,0,1,2,2.84c.19.38-.39.69-.61.89-.43.38-1.18,1-1.24,1.6a5.26,5.26,0,0,1,0,1c-.21.71-1.09,1-1.34,1.74-.18.51,0,1.07-.08,1.6-.07.34-.25.64-.32,1a2.39,2.39,0,0,0,.71,1.84c1.53,1.83,3.63,2.53,5.64,3.64,1.67.93,3.4,1.33,5.33,2.19s24.61,17.62,28.15,15.67,21.68-23.15,21.68-23.15A14.65,14.65,0,0,0,308.13,230.48Z" style="fill:#b16668"></path><path d="M310.16,229.8c-2.5.28-6-.18-10.91,5.08a153.17,153.17,0,0,0-11,14.2,13.91,13.91,0,0,0,11,10.33s8.58-8.79,11-13.64S313.1,233.06,310.16,229.8Z" style="fill:#FCD236"></path><path d="M310.16,229.8c-2.5.28-6-.18-10.91,5.08a153.17,153.17,0,0,0-11,14.2,13.91,13.91,0,0,0,11,10.33s8.58-8.79,11-13.64S313.1,233.06,310.16,229.8Z" style="opacity:0.1"></path></g></svg>