<svg xmlns="http://www.w3.org/2000/svg" xmlns:xlink="http://www.w3.org/1999/xlink" viewBox="0 0 565.07 247.44"><defs><style>.cls-1{fill:none;}.cls-2{fill:#fff;}.cls-3{clip-path:url(#clip-path);}.cls-4{fill:#fcd236;}</style><clipPath id="clip-path"><path class="cls-1" d="M409.08,203.84a102.34,102.34,0,0,1-20.91,3.8,118,118,0,0,1-17.9-.09q-20.86-1.82-30-12.83t-7.48-29.51a95.09,95.09,0,0,1,5.21-22.34L354.17,94,316,90.61l10-29.32,74.32,6.5-27.35,82.56a40.37,40.37,0,0,0-2.71,10.71q-1.29,14.69,13.7,16a79.57,79.57,0,0,0,11.84,0,81.76,81.76,0,0,0,15.33-2.65ZM385,49.59q-9.41-.82-14.69-6.32T365.93,27.2a26.48,26.48,0,0,1,3-10.25A24,24,0,0,1,375,9.35a26.43,26.43,0,0,1,8.24-4.46,22.78,22.78,0,0,1,9.27-1.11,23.32,23.32,0,0,1,14.4,6.29q5.87,5.55,4.9,16.71a23.29,23.29,0,0,1-3.08,9.79A25,25,0,0,1,402.35,44,28.25,28.25,0,0,1,394,48.45,22,22,0,0,1,385,49.59Z"/></clipPath></defs><title>logo for dark background</title><g id="圖層_2" data-name="圖層 2"><g id="Layer_1" data-name="Layer 1"><path class="cls-2" d="M37.44,204.38q-19.36-2-29.33-16.63T.43,147a97.56,97.56,0,0,1,10-36.13,86.27,86.27,0,0,1,21-27,84.17,84.17,0,0,1,29.08-16.1A85.43,85.43,0,0,1,94.41,64a130.67,130.67,0,0,1,24.18,4.48A139.27,139.27,0,0,1,142.91,78l-24.77,73.31a100.66,100.66,0,0,0-2.67,10.27A91.53,91.53,0,0,0,114,172a84.62,84.62,0,0,0,.16,16.74A132.88,132.88,0,0,0,117,205.13l-32.19,2.51-1.21-3.07q-.73-1.84-1.43-4T81,196.8c-.3-1.11-.52-2-.66-2.57a92.91,92.91,0,0,1-16.66,7.72Q53.3,205.77,37.44,204.38ZM53.35,174.7q8.22.72,14.13-2.46a43.48,43.48,0,0,0,10.45-7.82q.94-4.06,1.87-7.83t2.53-8.66L99.54,96.75A37.8,37.8,0,0,0,92.89,95q-3.5-.6-6.73-.88a35.88,35.88,0,0,0-18.93,3.23A47.49,47.49,0,0,0,52,108.87,58.74,58.74,0,0,0,41.46,126.3a73.51,73.51,0,0,0-4.93,20.88,50.6,50.6,0,0,0,.22,12.75,20,20,0,0,0,3.13,8.27,13.32,13.32,0,0,0,5.66,4.64A25,25,0,0,0,53.35,174.7Z"/><path class="cls-2" d="M246.87,63.26q27.32,2.39,38.73,17.45t9.49,37.09a118.58,118.58,0,0,1-8.37,34.79,88.41,88.41,0,0,1-18.64,28.71,77.58,77.58,0,0,1-29,18.48q-17.13,6.34-39.16,4.42-5.88-.51-9.08-1.09a37.64,37.64,0,0,1-5.5-1.37l-15.54,45.7-36.13-3.16L192.88,68a87.48,87.48,0,0,1,13.6-3.25q7.2-1.15,14.5-1.69t13.95-.41Q241.59,62.8,246.87,63.26ZM195.35,171.83a8.6,8.6,0,0,0,3.18.87l3.82.33A47.87,47.87,0,0,0,242,158.44a59.33,59.33,0,0,0,11.82-18.35,75.4,75.4,0,0,0,5.54-22.75,40.9,40.9,0,0,0-.14-8.6,19.28,19.28,0,0,0-2.59-7.63,16.06,16.06,0,0,0-6.31-5.73A29.25,29.25,0,0,0,239,92.47a69.41,69.41,0,0,0-9.89-.27,62.93,62.93,0,0,0-7.33.84Z"/><g class="cls-3"><rect class="cls-4" x="353.25" width="66.55" height="54.26"/><rect class="cls-2" x="310.25" y="59.38" width="109.55" height="170.98"/></g><path class="cls-2" d="M476.06,205.61q-24.67-2.16-35.48-17.31t-8.75-38.65a113.93,113.93,0,0,1,8.29-33.91,95.18,95.18,0,0,1,18.19-28.6,78.63,78.63,0,0,1,27.42-19.06q16-6.74,36-5Q543.12,65,555,79.18t9.67,40.06a119.06,119.06,0,0,1-8,33.64A92.34,92.34,0,0,1,539,181.52a77.55,77.55,0,0,1-27.13,19.09Q496,207.36,476.06,205.61Zm10.09-30.79a24.65,24.65,0,0,0,16-3.93,49.2,49.2,0,0,0,12.76-12.2,65.76,65.76,0,0,0,8.85-16.54,67.54,67.54,0,0,0,4-17.26q1.21-13.8-2.06-22.08t-15.61-9.36a24.83,24.83,0,0,0-15.89,3.94,46,46,0,0,0-12.76,12.2,68.62,68.62,0,0,0-8.7,16.55,67.34,67.34,0,0,0-4,17.26q-1.21,13.81,2.06,22.08T486.15,174.82Z"/></g></g></svg>