<svg id="svg" version="1.1" xmlns="http://www.w3.org/2000/svg" xmlns:xlink="http://www.w3.org/1999/xlink" width="400" height="196.03053435114504" viewBox="0, 0, 400,196.03053435114504"><g id="svgg"><path id="path0" d="M275.441 26.018 C 275.252 26.067,275.098 26.233,275.098 26.387 C 275.098 26.608,274.731 26.667,273.333 26.667 C 271.895 26.667,271.569 26.721,271.569 26.961 C 271.569 27.166,271.362 27.255,270.882 27.255 C 270.403 27.255,270.196 27.344,270.196 27.549 C 270.196 27.767,269.967 27.843,269.314 27.843 C 268.660 27.843,268.431 27.919,268.431 28.137 C 268.431 28.299,268.299 28.431,268.137 28.431 C 267.975 28.431,267.843 28.564,267.843 28.725 C 267.843 28.922,267.647 29.020,267.255 29.020 C 266.863 29.020,266.667 29.118,266.667 29.314 C 266.667 29.477,266.492 29.608,266.275 29.608 C 266.057 29.608,265.882 29.739,265.882 29.902 C 265.882 30.072,265.705 30.196,265.464 30.196 C 264.913 30.196,264.118 31.070,264.118 31.677 C 264.118 31.973,264.005 32.157,263.824 32.157 C 263.662 32.157,263.529 32.289,263.529 32.451 C 263.529 32.613,263.397 32.745,263.235 32.745 C 263.074 32.745,262.941 32.877,262.941 33.039 C 262.941 33.201,262.809 33.333,262.647 33.333 C 262.453 33.333,262.353 33.527,262.353 33.901 C 262.353 34.224,262.226 34.516,262.059 34.581 C 261.897 34.643,261.765 34.917,261.765 35.190 C 261.765 35.483,261.653 35.686,261.492 35.686 C 261.192 35.686,260.980 36.098,260.980 36.683 C 260.980 36.894,260.845 37.059,260.672 37.059 C 260.473 37.059,260.377 37.214,260.400 37.500 C 260.475 38.428,260.385 38.824,260.098 38.824 C 259.857 38.824,259.804 39.161,259.804 40.686 C 259.804 42.211,259.751 42.549,259.510 42.549 C 259.271 42.549,259.216 42.866,259.216 44.222 C 259.216 45.528,259.280 45.919,259.510 46.008 C 259.739 46.095,259.804 46.483,259.804 47.752 C 259.804 48.941,259.884 49.464,260.098 49.678 C 260.260 49.840,260.392 50.189,260.392 50.453 C 260.392 50.764,260.526 50.970,260.772 51.034 C 261.050 51.107,261.121 51.247,261.040 51.559 C 260.956 51.879,261.031 52.011,261.347 52.093 C 261.651 52.173,261.765 52.356,261.765 52.768 C 261.765 53.140,261.865 53.333,262.059 53.333 C 262.221 53.333,262.353 53.426,262.353 53.539 C 262.353 53.869,263.357 54.706,263.754 54.706 C 263.954 54.706,264.118 54.828,264.118 54.977 C 264.118 55.126,264.303 55.297,264.530 55.356 C 264.756 55.415,264.883 55.558,264.812 55.673 C 264.730 55.806,264.934 55.882,265.374 55.882 C 265.909 55.882,266.040 55.949,265.953 56.176 C 265.866 56.404,266.000 56.471,266.548 56.471 C 267.046 56.471,267.255 56.558,267.255 56.765 C 267.255 56.983,267.484 57.059,268.137 57.059 C 268.791 57.059,269.020 57.135,269.020 57.353 C 269.020 57.607,269.695 57.647,273.922 57.647 C 277.739 57.647,278.813 57.593,278.775 57.402 C 278.742 57.240,279.040 57.137,279.657 57.097 C 280.311 57.055,280.588 56.953,280.588 56.754 C 280.588 56.570,280.794 56.471,281.176 56.471 C 281.569 56.471,281.765 56.373,281.765 56.176 C 281.765 55.980,281.961 55.882,282.359 55.882 C 282.707 55.882,283.000 55.760,283.066 55.588 C 283.128 55.426,283.345 55.294,283.549 55.294 C 283.752 55.294,284.171 55.029,284.480 54.706 C 284.789 54.382,285.143 54.118,285.266 54.118 C 285.389 54.118,285.490 53.985,285.490 53.824 C 285.490 53.662,285.623 53.529,285.784 53.529 C 285.948 53.529,286.078 53.355,286.078 53.137 C 286.078 52.919,286.209 52.745,286.373 52.745 C 286.534 52.745,286.667 52.613,286.667 52.451 C 286.667 52.289,286.799 52.157,286.961 52.157 C 287.123 52.157,287.255 52.025,287.255 51.863 C 287.255 51.701,287.387 51.569,287.549 51.569 C 287.711 51.569,287.843 51.436,287.843 51.275 C 287.843 51.113,287.978 50.980,288.142 50.980 C 288.318 50.980,288.490 50.737,288.559 50.392 C 288.624 50.069,288.798 49.804,288.946 49.804 C 289.094 49.804,289.216 49.681,289.216 49.531 C 289.216 49.381,289.348 49.207,289.510 49.145 C 289.678 49.080,289.804 48.787,289.804 48.459 C 289.804 48.130,289.929 47.837,290.098 47.772 C 290.292 47.698,290.392 47.391,290.392 46.869 C 290.392 46.297,290.473 46.078,290.686 46.078 C 290.922 46.078,290.980 45.784,290.980 44.602 C 290.980 43.470,291.049 43.099,291.275 43.012 C 291.516 42.920,291.569 42.427,291.569 40.273 C 291.569 38.070,291.521 37.647,291.275 37.647 C 291.040 37.647,290.980 37.355,290.980 36.197 C 290.980 35.090,290.911 34.721,290.686 34.635 C 290.514 34.569,290.392 34.275,290.392 33.928 C 290.392 33.530,290.295 33.333,290.098 33.333 C 289.914 33.333,289.804 33.147,289.804 32.837 C 289.804 32.564,289.672 32.290,289.510 32.228 C 289.348 32.166,289.214 32.014,289.212 31.891 C 289.209 31.661,288.374 30.784,288.159 30.784 C 287.963 30.784,287.255 30.016,287.255 29.804 C 287.255 29.696,287.123 29.608,286.961 29.608 C 286.799 29.608,286.667 29.475,286.667 29.314 C 286.667 29.152,286.600 29.030,286.520 29.043 C 285.979 29.128,285.490 28.978,285.490 28.725 C 285.490 28.564,285.367 28.431,285.217 28.431 C 285.067 28.431,284.893 28.299,284.831 28.137 C 284.769 27.975,284.492 27.843,284.216 27.843 C 283.939 27.843,283.662 27.711,283.600 27.549 C 283.524 27.349,283.211 27.255,282.626 27.255 C 281.991 27.255,281.765 27.178,281.765 26.961 C 281.765 26.718,281.408 26.667,279.729 26.667 C 277.858 26.667,277.684 26.635,277.590 26.275 C 277.488 25.884,276.433 25.758,275.441 26.018 " stroke="none" fill="#fcd434" fill-rule="evenodd"></path><path id="path1" d="M232.941 65.098 C 232.941 65.490,232.843 65.686,232.647 65.686 C 232.429 65.686,232.353 65.915,232.353 66.569 C 232.353 67.222,232.277 67.451,232.059 67.451 C 231.837 67.451,231.765 67.691,231.765 68.431 C 231.765 69.172,231.693 69.412,231.471 69.412 C 231.253 69.412,231.176 69.641,231.176 70.294 C 231.176 70.948,231.100 71.176,230.882 71.176 C 230.664 71.176,230.588 71.405,230.588 72.059 C 230.588 72.712,230.512 72.941,230.294 72.941 C 230.072 72.941,230.000 73.181,230.000 73.922 C 230.000 74.662,229.928 74.902,229.706 74.902 C 229.488 74.902,229.412 75.131,229.412 75.784 C 229.412 76.536,229.354 76.667,229.020 76.667 C 228.729 76.667,228.627 76.797,228.627 77.171 C 228.627 77.448,228.495 77.807,228.333 77.969 C 228.172 78.131,228.039 78.610,228.039 79.034 C 228.039 79.588,227.957 79.804,227.745 79.804 C 227.528 79.804,227.451 80.030,227.451 80.665 C 227.451 81.250,227.357 81.563,227.157 81.640 C 226.965 81.713,226.863 82.019,226.863 82.522 C 226.863 83.038,226.762 83.330,226.557 83.409 C 226.332 83.495,226.268 83.746,226.312 84.361 L 226.373 85.196 228.186 85.252 C 229.621 85.297,230.000 85.369,230.000 85.596 C 230.000 85.836,230.539 85.882,233.333 85.882 C 236.166 85.882,236.667 85.927,236.667 86.176 C 236.667 86.426,237.165 86.471,239.979 86.471 C 242.742 86.471,243.310 86.519,243.404 86.765 C 243.499 87.012,244.102 87.059,247.151 87.059 C 250.250 87.059,250.784 87.102,250.784 87.353 C 250.784 87.515,250.917 87.647,251.078 87.647 C 251.275 87.647,251.373 87.843,251.373 88.235 C 251.373 88.627,251.275 88.824,251.078 88.824 C 250.856 88.824,250.784 89.063,250.784 89.804 C 250.784 90.654,250.732 90.784,250.392 90.784 C 250.058 90.784,250.000 90.915,250.000 91.667 C 250.000 92.320,249.924 92.549,249.706 92.549 C 249.488 92.549,249.412 92.778,249.412 93.431 C 249.412 94.085,249.336 94.314,249.118 94.314 C 248.895 94.314,248.824 94.553,248.824 95.294 C 248.824 96.035,248.752 96.275,248.529 96.275 C 248.312 96.275,248.235 96.503,248.235 97.157 C 248.235 97.810,248.159 98.039,247.941 98.039 C 247.723 98.039,247.647 98.268,247.647 98.922 C 247.647 99.575,247.571 99.804,247.353 99.804 C 247.131 99.804,247.059 100.044,247.059 100.784 C 247.059 101.525,246.987 101.765,246.765 101.765 C 246.547 101.765,246.471 101.993,246.471 102.647 C 246.471 103.301,246.394 103.529,246.176 103.529 C 245.959 103.529,245.882 103.758,245.882 104.412 C 245.882 105.056,245.805 105.294,245.595 105.294 C 245.398 105.294,245.267 105.603,245.178 106.275 C 245.093 106.911,244.953 107.255,244.779 107.255 C 244.591 107.255,244.510 107.521,244.510 108.137 C 244.510 108.791,244.434 109.020,244.216 109.020 C 243.999 109.020,243.922 109.246,243.922 109.881 C 243.922 110.466,243.827 110.779,243.627 110.855 C 243.426 110.933,243.333 111.248,243.333 111.857 C 243.333 112.516,243.257 112.745,243.039 112.745 C 242.821 112.745,242.745 112.974,242.745 113.627 C 242.745 114.281,242.669 114.510,242.451 114.510 C 242.229 114.510,242.157 114.749,242.157 115.490 C 242.157 116.231,242.085 116.471,241.863 116.471 C 241.645 116.471,241.569 116.699,241.569 117.353 C 241.569 118.007,241.492 118.235,241.275 118.235 C 241.057 118.235,240.980 118.464,240.980 119.118 C 240.980 119.771,240.904 120.000,240.686 120.000 C 240.464 120.000,240.392 120.240,240.392 120.980 C 240.392 121.684,240.316 121.961,240.121 121.961 C 239.802 121.961,239.614 122.554,239.611 123.578 C 239.609 124.100,239.522 124.314,239.314 124.314 C 239.086 124.314,239.020 124.573,239.020 125.469 C 239.020 126.315,238.941 126.655,238.725 126.738 C 238.510 126.820,238.431 127.160,238.431 128.012 C 238.431 128.864,238.353 129.204,238.137 129.287 C 237.898 129.378,237.843 129.842,237.843 131.759 C 237.843 133.725,237.794 134.118,237.549 134.118 C 237.298 134.118,237.255 134.651,237.255 137.745 C 237.255 140.839,237.298 141.373,237.549 141.373 C 237.790 141.373,237.843 141.710,237.843 143.235 C 237.843 144.760,237.896 145.098,238.137 145.098 C 238.366 145.098,238.431 145.359,238.431 146.275 C 238.431 147.190,238.497 147.451,238.725 147.451 C 238.936 147.451,239.020 147.666,239.020 148.211 C 239.020 148.633,239.145 149.076,239.301 149.205 C 239.456 149.334,239.639 149.697,239.709 150.014 C 239.778 150.330,239.960 150.588,240.114 150.588 C 240.292 150.588,240.392 150.799,240.392 151.176 C 240.392 151.569,240.490 151.765,240.686 151.765 C 240.848 151.765,240.980 151.897,240.980 152.059 C 240.980 152.221,241.113 152.353,241.275 152.353 C 241.471 152.353,241.569 152.549,241.569 152.941 C 241.569 153.333,241.667 153.529,241.863 153.529 C 242.025 153.529,242.157 153.665,242.157 153.830 C 242.157 153.995,242.289 154.181,242.451 154.243 C 242.613 154.305,242.745 154.479,242.745 154.629 C 242.745 154.779,242.877 154.902,243.039 154.902 C 243.201 154.902,243.333 155.034,243.333 155.196 C 243.333 155.358,243.466 155.490,243.627 155.490 C 243.789 155.490,243.922 155.623,243.922 155.784 C 243.922 155.946,244.054 156.078,244.216 156.078 C 244.377 156.078,244.510 156.211,244.510 156.373 C 244.510 156.536,244.684 156.667,244.902 156.667 C 245.120 156.667,245.294 156.797,245.294 156.961 C 245.294 157.123,245.426 157.255,245.588 157.255 C 245.750 157.255,245.882 157.387,245.882 157.549 C 245.882 157.745,246.078 157.843,246.471 157.843 C 246.863 157.843,247.059 157.941,247.059 158.137 C 247.059 158.299,247.191 158.431,247.353 158.431 C 247.515 158.431,247.647 158.557,247.647 158.710 C 247.647 158.863,247.904 159.045,248.219 159.114 C 248.533 159.183,248.839 159.367,248.899 159.522 C 248.959 159.678,249.263 159.804,249.581 159.804 C 249.910 159.804,250.202 159.929,250.267 160.098 C 250.341 160.292,250.649 160.392,251.170 160.392 C 251.742 160.392,251.961 160.473,251.961 160.686 C 251.961 160.904,252.190 160.980,252.843 160.980 C 253.497 160.980,253.725 161.057,253.725 161.275 C 253.725 161.497,253.965 161.569,254.706 161.569 C 255.447 161.569,255.686 161.641,255.686 161.863 C 255.686 162.098,255.980 162.157,257.157 162.157 C 258.333 162.157,258.627 162.216,258.627 162.451 C 258.627 162.701,259.129 162.745,261.961 162.745 C 264.793 162.745,265.294 162.789,265.294 163.039 C 265.294 163.291,265.871 163.333,269.314 163.333 C 272.756 163.333,273.333 163.291,273.333 163.039 C 273.333 162.789,273.834 162.745,276.667 162.745 C 279.499 162.745,280.000 162.701,280.000 162.451 C 280.000 162.211,280.327 162.157,281.771 162.157 C 283.164 162.157,283.566 162.094,283.655 161.863 C 283.737 161.647,284.077 161.569,284.923 161.569 C 285.819 161.569,286.078 161.503,286.078 161.275 C 286.078 161.046,286.339 160.980,287.245 160.980 C 288.042 160.980,288.462 160.893,288.569 160.705 C 288.655 160.554,288.946 160.399,289.216 160.362 L 289.706 160.294 289.759 156.084 C 289.803 152.610,289.863 151.845,290.102 151.711 C 290.345 151.576,290.392 150.818,290.392 147.049 C 290.392 143.180,290.433 142.549,290.686 142.549 C 290.922 142.549,290.980 142.255,290.980 141.078 L 290.980 139.608 289.804 139.608 C 288.889 139.608,288.627 139.673,288.627 139.902 C 288.627 140.133,288.355 140.196,287.353 140.196 C 286.351 140.196,286.078 140.259,286.078 140.490 C 286.078 140.730,285.752 140.784,284.314 140.784 C 282.876 140.784,282.549 140.839,282.549 141.078 C 282.549 141.334,281.732 141.373,276.373 141.373 C 271.013 141.373,270.196 141.334,270.196 141.078 C 270.196 140.861,269.967 140.784,269.314 140.784 C 268.660 140.784,268.431 140.708,268.431 140.490 C 268.431 140.294,268.235 140.196,267.843 140.196 C 267.451 140.196,267.255 140.098,267.255 139.902 C 267.255 139.739,267.081 139.608,266.863 139.608 C 266.645 139.608,266.471 139.477,266.471 139.314 C 266.471 139.152,266.338 139.020,266.176 139.020 C 266.015 139.020,265.882 138.887,265.882 138.725 C 265.882 138.564,265.750 138.431,265.588 138.431 C 265.426 138.431,265.294 138.299,265.294 138.137 C 265.294 137.975,265.162 137.843,265.000 137.843 C 264.803 137.843,264.706 137.646,264.706 137.249 C 264.706 136.901,264.584 136.607,264.412 136.541 C 264.212 136.465,264.118 136.152,264.118 135.567 C 264.118 134.932,264.040 134.706,263.824 134.706 C 263.580 134.706,263.529 134.336,263.529 132.549 C 263.529 130.763,263.580 130.392,263.824 130.392 C 264.052 130.392,264.118 130.133,264.118 129.237 C 264.118 128.390,264.196 128.051,264.412 127.968 C 264.613 127.891,264.706 127.576,264.706 126.967 C 264.706 126.308,264.782 126.078,265.000 126.078 C 265.218 126.078,265.294 125.850,265.294 125.196 C 265.294 124.542,265.370 124.314,265.588 124.314 C 265.806 124.314,265.882 124.085,265.882 123.431 C 265.882 122.778,265.959 122.549,266.176 122.549 C 266.398 122.549,266.471 122.312,266.471 121.591 C 266.471 120.799,266.538 120.616,266.863 120.531 C 267.172 120.451,267.255 120.264,267.255 119.647 C 267.255 119.133,267.356 118.827,267.549 118.753 C 267.744 118.678,267.843 118.370,267.843 117.843 C 267.843 117.316,267.943 117.008,268.137 116.934 C 268.337 116.857,268.431 116.544,268.431 115.959 C 268.431 115.324,268.509 115.098,268.725 115.098 C 268.943 115.098,269.020 114.869,269.020 114.216 C 269.020 113.562,269.096 113.333,269.314 113.333 C 269.531 113.333,269.608 113.107,269.608 112.472 C 269.608 111.887,269.702 111.574,269.902 111.498 C 270.104 111.420,270.196 111.105,270.196 110.496 C 270.196 109.837,270.272 109.608,270.490 109.608 C 270.708 109.608,270.784 109.379,270.784 108.725 C 270.784 108.072,270.861 107.843,271.078 107.843 C 271.300 107.843,271.373 107.606,271.373 106.886 C 271.373 106.093,271.440 105.910,271.765 105.826 C 272.074 105.745,272.157 105.558,272.157 104.941 C 272.157 104.427,272.258 104.121,272.451 104.047 C 272.643 103.973,272.745 103.667,272.745 103.164 C 272.745 102.661,272.847 102.356,273.039 102.282 C 273.241 102.205,273.333 101.890,273.333 101.281 C 273.333 100.622,273.409 100.392,273.627 100.392 C 273.845 100.392,273.922 100.163,273.922 99.510 C 273.922 98.856,273.998 98.627,274.216 98.627 C 274.432 98.627,274.510 98.401,274.510 97.766 C 274.510 97.181,274.604 96.868,274.804 96.792 C 275.005 96.714,275.098 96.399,275.098 95.790 C 275.098 95.131,275.174 94.902,275.392 94.902 C 275.610 94.902,275.686 94.673,275.686 94.020 C 275.686 93.366,275.763 93.137,275.980 93.137 C 276.197 93.137,276.275 92.911,276.275 92.276 C 276.275 91.691,276.369 91.378,276.569 91.302 C 276.770 91.224,276.863 90.909,276.863 90.300 C 276.863 89.674,276.943 89.412,277.134 89.412 C 277.405 89.412,277.639 88.844,277.644 88.172 C 277.646 87.976,277.779 87.683,277.941 87.521 C 278.103 87.359,278.235 86.922,278.235 86.548 C 278.235 86.126,278.346 85.827,278.529 85.757 C 278.729 85.681,278.824 85.368,278.824 84.783 C 278.824 84.148,278.901 83.922,279.118 83.922 C 279.334 83.922,279.412 83.695,279.412 83.060 C 279.412 82.475,279.506 82.163,279.706 82.086 C 279.901 82.011,280.000 81.704,280.000 81.176 C 280.000 80.649,280.099 80.342,280.294 80.267 C 280.494 80.190,280.588 79.878,280.588 79.293 C 280.588 78.658,280.666 78.431,280.882 78.431 C 281.100 78.431,281.176 78.203,281.176 77.549 C 281.176 76.895,281.253 76.667,281.471 76.667 C 281.689 76.667,281.765 76.437,281.765 75.778 C 281.765 75.169,281.857 74.854,282.059 74.777 C 282.258 74.700,282.353 74.387,282.353 73.803 C 282.353 73.200,282.434 72.941,282.624 72.941 C 282.941 72.941,283.131 72.349,283.135 71.345 C 283.136 70.892,283.245 70.589,283.431 70.517 C 283.846 70.358,283.833 68.907,283.415 68.746 C 283.245 68.681,282.151 68.627,280.985 68.627 C 279.282 68.627,278.843 68.570,278.753 68.333 C 278.658 68.087,278.055 68.039,275.006 68.039 C 271.907 68.039,271.373 67.996,271.373 67.745 C 271.373 67.495,270.871 67.451,268.039 67.451 C 265.207 67.451,264.706 67.407,264.706 67.157 C 264.706 66.907,264.207 66.863,261.394 66.863 C 258.630 66.863,258.062 66.814,257.968 66.569 C 257.874 66.322,257.284 66.275,254.341 66.275 C 251.398 66.275,250.808 66.227,250.713 65.980 C 250.619 65.735,250.049 65.686,247.261 65.686 C 244.423 65.686,243.922 65.642,243.922 65.392 C 243.922 65.141,243.388 65.098,240.294 65.098 C 237.200 65.098,236.667 65.055,236.667 64.804 C 236.667 64.563,236.329 64.510,234.804 64.510 L 232.941 64.510 232.941 65.098 M160.392 65.980 C 160.392 66.226,159.989 66.275,157.941 66.275 C 155.893 66.275,155.490 66.323,155.490 66.569 C 155.490 66.809,155.153 66.863,153.627 66.863 C 152.102 66.863,151.765 66.916,151.765 67.157 C 151.765 67.386,151.503 67.451,150.588 67.451 C 149.673 67.451,149.412 67.516,149.412 67.745 C 149.412 67.974,149.150 68.039,148.229 68.039 C 147.359 68.039,147.017 68.117,146.934 68.333 C 146.859 68.527,146.553 68.627,146.039 68.627 C 145.422 68.627,145.236 68.710,145.155 69.020 C 145.098 69.235,144.930 69.412,144.781 69.412 C 144.590 69.412,144.510 69.674,144.510 70.294 C 144.510 70.915,144.429 71.176,144.239 71.176 C 143.957 71.176,143.733 71.750,143.728 72.479 C 143.727 72.710,143.593 72.950,143.431 73.012 C 143.230 73.089,143.137 73.405,143.137 74.013 C 143.137 74.673,143.061 74.902,142.843 74.902 C 142.625 74.902,142.549 75.131,142.549 75.784 C 142.549 76.438,142.473 76.667,142.255 76.667 C 142.038 76.667,141.961 76.893,141.961 77.528 C 141.961 78.113,141.866 78.426,141.667 78.502 C 141.465 78.580,141.373 78.895,141.373 79.504 C 141.373 80.163,141.297 80.392,141.078 80.392 C 140.861 80.392,140.784 80.621,140.784 81.275 C 140.784 81.928,140.708 82.157,140.490 82.157 C 140.272 82.157,140.196 82.386,140.196 83.039 C 140.196 83.693,140.120 83.922,139.902 83.922 C 139.680 83.922,139.608 84.161,139.608 84.902 C 139.608 85.643,139.536 85.882,139.314 85.882 C 139.097 85.882,139.020 86.109,139.020 86.742 C 139.020 87.436,138.944 87.621,138.627 87.704 C 138.318 87.785,138.235 87.971,138.235 88.588 C 138.235 89.102,138.135 89.408,137.941 89.483 C 137.740 89.560,137.647 89.875,137.647 90.484 C 137.647 91.143,137.571 91.373,137.353 91.373 C 137.135 91.373,137.059 91.601,137.059 92.255 C 137.059 92.908,136.983 93.137,136.765 93.137 C 136.548 93.137,136.471 93.364,136.471 93.999 C 136.471 94.583,136.376 94.896,136.176 94.973 C 135.975 95.050,135.882 95.365,135.882 95.974 C 135.882 96.633,135.806 96.863,135.588 96.863 C 135.370 96.863,135.294 97.092,135.294 97.745 C 135.294 98.399,135.218 98.627,135.000 98.627 C 134.783 98.627,134.706 98.854,134.706 99.489 C 134.706 100.074,134.611 100.386,134.412 100.463 C 134.210 100.540,134.118 100.856,134.118 101.464 C 134.118 102.123,134.042 102.353,133.824 102.353 C 133.627 102.353,133.529 102.549,133.529 102.941 C 133.529 103.311,133.429 103.529,133.258 103.529 C 132.964 103.529,132.752 104.110,132.748 104.930 C 132.746 105.215,132.613 105.499,132.451 105.561 C 132.259 105.635,132.157 105.940,132.157 106.443 C 132.157 106.947,132.055 107.252,131.863 107.326 C 131.670 107.400,131.569 107.705,131.569 108.208 C 131.569 108.711,131.467 109.017,131.275 109.091 C 131.073 109.168,130.980 109.483,130.980 110.092 C 130.980 110.751,130.904 110.980,130.686 110.980 C 130.468 110.980,130.392 111.209,130.392 111.863 C 130.392 112.516,130.316 112.745,130.098 112.745 C 129.881 112.745,129.804 112.972,129.804 113.606 C 129.804 114.191,129.709 114.504,129.510 114.581 C 129.308 114.658,129.216 114.973,129.216 115.582 C 129.216 116.241,129.140 116.471,128.922 116.471 C 128.704 116.471,128.627 116.699,128.627 117.353 C 128.627 118.007,128.551 118.235,128.333 118.235 C 128.129 118.235,128.039 118.441,128.039 118.908 C 128.039 119.277,127.898 119.721,127.726 119.893 C 127.553 120.066,127.364 120.579,127.305 121.035 C 127.246 121.490,127.078 121.933,126.932 122.020 C 126.780 122.109,126.667 122.508,126.667 122.951 C 126.667 123.509,126.584 123.725,126.373 123.725 C 126.156 123.725,126.078 123.952,126.078 124.587 C 126.078 125.172,125.984 125.484,125.784 125.561 C 125.583 125.638,125.490 125.954,125.490 126.562 C 125.490 127.222,125.414 127.451,125.196 127.451 C 124.978 127.451,124.902 127.680,124.902 128.333 C 124.902 128.987,124.826 129.216,124.608 129.216 C 124.390 129.216,124.314 129.444,124.314 130.098 C 124.314 130.752,124.237 130.980,124.020 130.980 C 123.797 130.980,123.725 131.220,123.725 131.961 C 123.725 132.702,123.654 132.941,123.431 132.941 C 123.214 132.941,123.137 133.170,123.137 133.824 C 123.137 134.444,123.057 134.706,122.866 134.706 C 122.585 134.706,122.360 135.279,122.356 136.008 C 122.354 136.240,122.221 136.479,122.059 136.541 C 121.857 136.619,121.765 136.934,121.765 137.543 C 121.765 138.202,121.689 138.431,121.471 138.431 C 121.253 138.431,121.176 138.660,121.176 139.314 C 121.176 139.967,121.100 140.196,120.882 140.196 C 120.664 140.196,120.588 140.425,120.588 141.078 C 120.588 141.732,120.512 141.961,120.294 141.961 C 120.072 141.961,120.000 142.200,120.000 142.941 C 120.000 143.682,119.928 143.922,119.706 143.922 C 119.488 143.922,119.412 144.150,119.412 144.804 C 119.412 145.458,119.336 145.686,119.118 145.686 C 118.900 145.686,118.824 145.915,118.824 146.569 C 118.824 147.222,118.747 147.451,118.529 147.451 C 118.307 147.451,118.235 147.691,118.235 148.431 C 118.235 149.172,118.163 149.412,117.941 149.412 C 117.724 149.412,117.647 149.638,117.647 150.271 C 117.647 150.966,117.572 151.150,117.255 151.233 C 116.945 151.314,116.863 151.501,116.863 152.118 C 116.863 152.631,116.762 152.938,116.569 153.012 C 116.367 153.089,116.275 153.405,116.275 154.013 C 116.275 154.673,116.199 154.902,115.980 154.902 C 115.763 154.902,115.686 155.131,115.686 155.784 C 115.686 156.438,115.610 156.667,115.392 156.667 C 115.175 156.667,115.098 156.893,115.098 157.528 C 115.098 158.113,115.004 158.426,114.804 158.502 C 114.602 158.580,114.510 158.895,114.510 159.504 C 114.510 160.163,114.434 160.392,114.216 160.392 C 113.998 160.392,113.922 160.621,113.922 161.275 C 113.922 161.928,113.845 162.157,113.627 162.157 C 113.411 162.157,113.333 162.383,113.333 163.018 C 113.333 163.603,113.239 163.916,113.039 163.992 C 112.838 164.070,112.745 164.385,112.745 164.994 C 112.745 165.653,112.669 165.882,112.451 165.882 C 112.234 165.882,112.157 166.109,112.157 166.742 C 112.157 167.436,112.082 167.621,111.765 167.704 C 111.444 167.788,111.373 167.971,111.373 168.707 C 111.373 169.377,111.297 169.608,111.078 169.608 C 110.861 169.608,110.784 169.837,110.784 170.490 C 110.784 171.144,110.708 171.373,110.490 171.373 C 110.272 171.373,110.196 171.601,110.196 172.255 C 110.196 172.908,110.120 173.137,109.902 173.137 C 109.680 173.137,109.608 173.377,109.608 174.118 C 109.608 174.858,109.536 175.098,109.314 175.098 C 109.096 175.098,109.020 175.327,109.020 175.980 C 109.020 176.634,108.943 176.863,108.725 176.863 C 108.508 176.863,108.431 177.092,108.431 177.745 C 108.431 178.399,108.355 178.627,108.137 178.627 C 107.932 178.627,107.843 178.834,107.843 179.314 C 107.843 179.793,107.754 180.000,107.549 180.000 C 107.331 180.000,107.255 180.229,107.255 180.882 C 107.255 181.499,107.174 181.765,106.986 181.765 C 106.822 181.765,106.666 182.080,106.588 182.568 C 106.518 183.011,106.330 183.502,106.171 183.661 C 106.012 183.820,105.882 184.287,105.882 184.699 C 105.882 185.184,105.779 185.488,105.588 185.561 C 105.394 185.636,105.294 185.943,105.294 186.464 L 105.294 187.255 106.569 187.255 C 107.571 187.255,107.843 187.318,107.843 187.549 C 107.843 187.800,108.377 187.843,111.471 187.843 C 114.564 187.843,115.098 187.886,115.098 188.137 C 115.098 188.387,115.599 188.431,118.431 188.431 C 121.264 188.431,121.765 188.476,121.765 188.725 C 121.765 188.976,122.277 189.020,125.196 189.020 C 128.115 189.020,128.627 189.063,128.627 189.314 C 128.627 189.542,128.889 189.608,129.804 189.608 L 130.980 189.608 130.980 188.725 C 130.980 188.072,131.057 187.843,131.275 187.843 C 131.491 187.843,131.569 187.617,131.569 186.982 C 131.569 186.397,131.663 186.084,131.863 186.008 C 132.064 185.930,132.157 185.615,132.157 185.006 C 132.157 184.347,132.233 184.118,132.451 184.118 C 132.668 184.118,132.745 183.891,132.745 183.258 C 132.745 182.564,132.820 182.379,133.137 182.296 C 133.447 182.215,133.529 182.029,133.529 181.412 C 133.529 180.898,133.630 180.592,133.824 180.517 C 134.025 180.440,134.118 180.125,134.118 179.516 C 134.118 178.857,134.194 178.627,134.412 178.627 C 134.630 178.627,134.706 178.399,134.706 177.745 C 134.706 177.092,134.782 176.863,135.000 176.863 C 135.217 176.863,135.294 176.636,135.294 176.001 C 135.294 175.417,135.389 175.104,135.588 175.027 C 135.790 174.950,135.882 174.635,135.882 174.026 C 135.882 173.367,135.958 173.137,136.176 173.137 C 136.394 173.137,136.471 172.908,136.471 172.255 C 136.471 171.601,136.547 171.373,136.765 171.373 C 136.987 171.373,137.059 171.133,137.059 170.392 C 137.059 169.651,137.131 169.412,137.353 169.412 C 137.571 169.412,137.647 169.183,137.647 168.529 C 137.647 167.876,137.723 167.647,137.941 167.647 C 138.137 167.647,138.235 167.451,138.235 167.059 C 138.235 166.689,138.336 166.471,138.507 166.471 C 138.801 166.471,139.013 165.890,139.017 165.070 C 139.018 164.785,139.152 164.501,139.314 164.439 C 139.506 164.365,139.608 164.060,139.608 163.557 C 139.608 163.053,139.710 162.748,139.902 162.674 C 140.094 162.600,140.196 162.295,140.196 161.792 C 140.196 161.289,140.298 160.983,140.490 160.909 C 140.665 160.842,140.784 160.547,140.784 160.181 C 140.784 159.701,140.852 159.592,141.094 159.685 C 141.265 159.750,141.971 159.804,142.663 159.804 C 143.651 159.804,143.922 159.867,143.922 160.098 C 143.922 160.345,144.357 160.392,146.667 160.392 C 148.976 160.392,149.412 160.439,149.412 160.686 C 149.412 160.942,150.349 160.980,156.667 160.980 C 162.985 160.980,163.922 160.942,163.922 160.686 C 163.922 160.443,164.292 160.392,166.078 160.392 C 167.865 160.392,168.235 160.342,168.235 160.098 C 168.235 159.863,168.527 159.804,169.685 159.804 C 170.793 159.804,171.161 159.735,171.247 159.510 C 171.320 159.321,171.625 159.215,172.102 159.213 C 173.131 159.209,173.725 159.023,173.725 158.703 C 173.725 158.512,173.987 158.431,174.608 158.431 C 175.261 158.431,175.490 158.355,175.490 158.137 C 175.490 157.919,175.720 157.843,176.379 157.843 C 176.988 157.843,177.303 157.751,177.380 157.549 C 177.444 157.381,177.737 157.255,178.060 157.255 C 178.434 157.255,178.627 157.154,178.627 156.961 C 178.627 156.765,178.824 156.667,179.216 156.667 C 179.608 156.667,179.804 156.569,179.804 156.373 C 179.804 156.155,180.033 156.078,180.686 156.078 C 181.340 156.078,181.569 156.002,181.569 155.784 C 181.569 155.588,181.765 155.490,182.163 155.490 C 182.510 155.490,182.804 155.368,182.870 155.196 C 182.932 155.034,183.197 154.902,183.459 154.902 C 183.720 154.902,183.985 154.770,184.047 154.608 C 184.109 154.446,184.283 154.314,184.433 154.314 C 184.583 154.314,184.706 154.137,184.706 153.922 C 184.706 153.617,184.837 153.529,185.294 153.529 C 185.686 153.529,185.882 153.431,185.882 153.235 C 185.882 153.039,186.079 152.941,186.477 152.941 C 186.824 152.941,187.118 152.819,187.184 152.647 C 187.246 152.485,187.420 152.353,187.570 152.353 C 187.720 152.353,187.843 152.221,187.843 152.059 C 187.843 151.863,188.039 151.765,188.431 151.765 C 188.824 151.765,189.020 151.667,189.020 151.471 C 189.020 151.309,189.152 151.176,189.314 151.176 C 189.475 151.176,189.608 151.044,189.608 150.882 C 189.608 150.686,189.804 150.588,190.196 150.588 C 190.588 150.588,190.784 150.490,190.784 150.294 C 190.784 150.132,190.917 150.000,191.078 150.000 C 191.240 150.000,191.373 149.868,191.373 149.706 C 191.373 149.544,191.483 149.410,191.618 149.408 C 191.917 149.404,192.745 148.558,192.745 148.257 C 192.745 148.137,192.877 148.039,193.039 148.039 C 193.201 148.039,193.333 147.907,193.333 147.745 C 193.333 147.549,193.529 147.451,193.922 147.451 C 194.314 147.451,194.510 147.353,194.510 147.157 C 194.510 146.995,194.642 146.863,194.804 146.863 C 194.966 146.863,195.098 146.730,195.098 146.569 C 195.098 146.407,195.230 146.275,195.392 146.275 C 195.554 146.275,195.686 146.142,195.686 145.980 C 195.686 145.819,195.819 145.686,195.980 145.686 C 196.142 145.686,196.275 145.554,196.275 145.392 C 196.275 145.230,196.407 145.098,196.569 145.098 C 196.765 145.098,196.863 144.902,196.863 144.510 C 196.863 144.172,196.967 143.920,197.108 143.918 C 197.407 143.914,198.235 143.068,198.235 142.766 C 198.235 142.647,198.368 142.549,198.529 142.549 C 198.691 142.549,198.824 142.417,198.824 142.255 C 198.824 142.093,198.956 141.961,199.118 141.961 C 199.279 141.961,199.412 141.828,199.412 141.667 C 199.412 141.505,199.544 141.373,199.706 141.373 C 199.868 141.373,200.000 141.240,200.000 141.078 C 200.000 140.917,200.132 140.784,200.294 140.784 C 200.490 140.784,200.588 140.588,200.588 140.196 C 200.588 139.804,200.686 139.608,200.882 139.608 C 201.044 139.608,201.176 139.475,201.176 139.314 C 201.176 139.152,201.309 139.020,201.471 139.020 C 201.676 139.020,201.765 138.813,201.765 138.333 C 201.765 137.854,201.853 137.647,202.059 137.647 C 202.221 137.647,202.353 137.525,202.353 137.376 C 202.353 137.227,202.529 137.058,202.745 137.002 C 203.010 136.933,203.137 136.735,203.137 136.391 C 203.137 136.070,203.246 135.882,203.431 135.882 C 203.593 135.882,203.725 135.750,203.725 135.588 C 203.725 135.426,203.858 135.294,204.020 135.294 C 204.216 135.294,204.314 135.098,204.314 134.706 C 204.314 134.314,204.412 134.118,204.608 134.118 C 204.804 134.118,204.902 133.922,204.902 133.529 C 204.902 133.137,205.000 132.941,205.196 132.941 C 205.359 132.941,205.490 132.767,205.490 132.549 C 205.490 132.331,205.621 132.157,205.784 132.157 C 205.980 132.157,206.078 131.961,206.078 131.569 C 206.078 131.176,206.176 130.980,206.373 130.980 C 206.569 130.980,206.667 130.784,206.667 130.392 C 206.667 130.000,206.765 129.804,206.961 129.804 C 207.179 129.804,207.255 129.575,207.255 128.922 C 207.255 128.268,207.331 128.039,207.549 128.039 C 207.753 128.039,207.843 127.835,207.843 127.376 C 207.843 126.877,207.941 126.687,208.235 126.610 C 208.495 126.542,208.627 126.342,208.627 126.020 C 208.627 125.752,208.760 125.481,208.922 125.419 C 209.114 125.345,209.216 125.040,209.216 124.537 C 209.216 124.034,209.318 123.728,209.510 123.655 C 209.711 123.577,209.804 123.262,209.804 122.653 C 209.804 121.994,209.880 121.765,210.098 121.765 C 210.316 121.765,210.392 121.536,210.392 120.882 C 210.392 120.229,210.468 120.000,210.686 120.000 C 210.903 120.000,210.980 119.774,210.980 119.139 C 210.980 118.554,211.075 118.241,211.275 118.164 C 211.491 118.081,211.569 117.739,211.569 116.869 C 211.569 115.948,211.634 115.686,211.863 115.686 C 212.098 115.686,212.157 115.392,212.157 114.216 C 212.157 113.039,212.216 112.745,212.451 112.745 C 212.688 112.745,212.745 112.443,212.745 111.199 C 212.745 109.818,212.787 109.643,213.137 109.551 C 213.498 109.457,213.529 109.284,213.529 107.392 C 213.529 105.745,213.588 105.314,213.824 105.223 C 214.076 105.126,214.118 104.242,214.118 98.922 C 214.118 93.601,214.076 92.717,213.824 92.620 C 213.596 92.533,213.529 92.154,213.529 90.959 C 213.529 89.673,213.463 89.346,213.137 89.020 C 212.876 88.758,212.745 88.366,212.745 87.843 C 212.745 87.277,212.663 87.059,212.451 87.059 C 212.233 87.059,212.157 86.830,212.157 86.176 C 212.157 85.523,212.081 85.294,211.863 85.294 C 211.645 85.294,211.569 85.065,211.569 84.406 C 211.569 83.797,211.476 83.482,211.275 83.404 C 211.113 83.342,210.980 83.077,210.980 82.816 C 210.980 82.555,210.848 82.290,210.686 82.228 C 210.519 82.163,210.392 81.871,210.392 81.548 C 210.392 81.174,210.292 80.980,210.098 80.980 C 209.936 80.980,209.804 80.848,209.804 80.686 C 209.804 80.525,209.672 80.392,209.510 80.392 C 209.328 80.392,209.216 80.208,209.216 79.912 C 209.216 79.413,208.454 78.431,208.066 78.431 C 207.943 78.431,207.843 78.167,207.843 77.843 C 207.843 77.451,207.745 77.255,207.549 77.255 C 207.387 77.255,207.255 77.123,207.255 76.961 C 207.255 76.799,207.123 76.667,206.961 76.667 C 206.799 76.667,206.667 76.534,206.667 76.373 C 206.667 76.211,206.534 76.078,206.373 76.078 C 206.211 76.078,206.078 75.946,206.078 75.784 C 206.078 75.623,205.946 75.490,205.784 75.490 C 205.623 75.490,205.490 75.358,205.490 75.196 C 205.490 75.034,205.358 74.902,205.196 74.902 C 205.034 74.902,204.902 74.770,204.902 74.608 C 204.902 74.446,204.770 74.314,204.608 74.314 C 204.446 74.314,204.314 74.216,204.314 74.096 C 204.314 73.795,203.485 72.949,203.186 72.945 C 203.051 72.943,202.941 72.809,202.941 72.647 C 202.941 72.451,202.745 72.353,202.353 72.353 C 201.961 72.353,201.765 72.255,201.765 72.059 C 201.765 71.897,201.632 71.765,201.471 71.765 C 201.309 71.765,201.176 71.632,201.176 71.471 C 201.176 71.275,200.980 71.176,200.588 71.176 C 200.196 71.176,200.000 71.078,200.000 70.882 C 200.000 70.686,199.804 70.588,199.412 70.588 C 199.020 70.588,198.824 70.490,198.824 70.294 C 198.824 70.098,198.627 70.000,198.235 70.000 C 197.843 70.000,197.647 69.902,197.647 69.706 C 197.647 69.500,197.440 69.412,196.961 69.412 C 196.507 69.412,196.275 69.320,196.275 69.141 C 196.275 68.859,195.701 68.635,194.972 68.630 C 194.741 68.629,194.501 68.495,194.439 68.333 C 194.365 68.141,194.060 68.039,193.557 68.039 C 193.053 68.039,192.748 67.937,192.674 67.745 C 192.591 67.529,192.249 67.451,191.379 67.451 C 190.458 67.451,190.196 67.386,190.196 67.157 C 190.196 66.929,189.937 66.863,189.041 66.863 C 188.194 66.863,187.855 66.784,187.772 66.569 C 187.682 66.333,187.251 66.275,185.615 66.275 C 183.979 66.275,183.549 66.216,183.459 65.980 C 183.360 65.724,181.890 65.686,171.869 65.686 C 161.798 65.686,160.392 65.722,160.392 65.980 M350.784 65.980 C 350.784 66.220,350.458 66.275,349.020 66.275 C 347.582 66.275,347.255 66.329,347.255 66.569 C 347.255 66.798,346.993 66.863,346.072 66.863 C 345.202 66.863,344.860 66.940,344.777 67.157 C 344.700 67.357,344.387 67.451,343.803 67.451 C 343.168 67.451,342.941 67.528,342.941 67.745 C 342.941 67.963,342.712 68.039,342.059 68.039 C 341.405 68.039,341.176 68.115,341.176 68.333 C 341.176 68.495,341.007 68.627,340.800 68.627 C 340.216 68.627,339.804 68.839,339.804 69.139 C 339.804 69.332,339.545 69.412,338.922 69.412 C 338.268 69.412,338.039 69.488,338.039 69.706 C 338.039 69.902,337.843 70.000,337.451 70.000 C 337.059 70.000,336.863 70.098,336.863 70.294 C 336.863 70.488,336.669 70.588,336.295 70.588 C 335.972 70.588,335.680 70.715,335.615 70.882 C 335.549 71.054,335.256 71.176,334.908 71.176 C 334.510 71.176,334.314 71.274,334.314 71.471 C 334.314 71.655,334.128 71.765,333.817 71.765 C 333.544 71.765,333.270 71.897,333.208 72.059 C 333.146 72.221,332.972 72.353,332.822 72.353 C 332.672 72.353,332.549 72.485,332.549 72.647 C 332.549 72.843,332.353 72.941,331.961 72.941 C 331.569 72.941,331.373 73.039,331.373 73.235 C 331.373 73.397,331.240 73.529,331.078 73.529 C 330.915 73.529,330.784 73.704,330.784 73.922 C 330.784 74.239,330.654 74.314,330.098 74.314 C 329.619 74.314,329.412 74.402,329.412 74.608 C 329.412 74.770,329.279 74.902,329.118 74.902 C 328.956 74.902,328.824 75.034,328.824 75.196 C 328.824 75.392,328.627 75.490,328.235 75.490 C 327.843 75.490,327.647 75.588,327.647 75.784 C 327.647 75.946,327.515 76.078,327.353 76.078 C 327.191 76.078,327.059 76.211,327.059 76.373 C 327.059 76.534,326.926 76.667,326.765 76.667 C 326.603 76.667,326.471 76.799,326.471 76.961 C 326.471 77.123,326.338 77.255,326.176 77.255 C 326.015 77.255,325.882 77.387,325.882 77.549 C 325.882 77.711,325.747 77.843,325.582 77.843 C 325.417 77.843,325.235 77.966,325.177 78.115 C 325.120 78.265,324.814 78.439,324.497 78.503 C 324.162 78.569,323.922 78.743,323.922 78.917 C 323.922 79.081,323.789 79.216,323.627 79.216 C 323.466 79.216,323.333 79.348,323.333 79.510 C 323.333 79.672,323.201 79.804,323.039 79.804 C 322.877 79.804,322.745 79.936,322.745 80.098 C 322.745 80.260,322.613 80.392,322.451 80.392 C 322.289 80.392,322.157 80.525,322.157 80.686 C 322.157 80.848,322.025 80.980,321.863 80.980 C 321.701 80.980,321.569 81.113,321.569 81.275 C 321.569 81.436,321.436 81.569,321.275 81.569 C 321.113 81.569,320.980 81.701,320.980 81.863 C 320.980 82.025,320.848 82.157,320.686 82.157 C 320.490 82.157,320.392 82.353,320.392 82.745 C 320.392 83.069,320.290 83.333,320.166 83.333 C 319.899 83.333,318.431 84.833,318.431 85.106 C 318.431 85.210,318.299 85.294,318.137 85.294 C 317.941 85.294,317.843 85.490,317.843 85.882 C 317.843 86.275,317.745 86.471,317.549 86.471 C 317.387 86.471,317.255 86.603,317.255 86.765 C 317.255 86.926,317.123 87.059,316.961 87.059 C 316.799 87.059,316.667 87.191,316.667 87.353 C 316.667 87.515,316.534 87.647,316.373 87.647 C 316.176 87.647,316.078 87.843,316.078 88.235 C 316.078 88.627,315.980 88.824,315.784 88.824 C 315.623 88.824,315.490 88.946,315.490 89.097 C 315.490 89.247,315.358 89.421,315.196 89.483 C 315.024 89.549,314.902 89.842,314.902 90.190 C 314.902 90.654,314.816 90.784,314.510 90.784 C 314.294 90.784,314.118 90.907,314.118 91.057 C 314.118 91.208,313.985 91.381,313.824 91.443 C 313.662 91.506,313.529 91.780,313.529 92.053 C 313.529 92.363,313.419 92.549,313.235 92.549 C 313.039 92.549,312.941 92.745,312.941 93.137 C 312.941 93.529,312.843 93.725,312.647 93.725 C 312.451 93.725,312.353 93.922,312.353 94.314 C 312.353 94.706,312.255 94.902,312.059 94.902 C 311.895 94.902,311.765 95.076,311.765 95.294 C 311.765 95.512,311.634 95.686,311.471 95.686 C 311.275 95.686,311.176 95.882,311.176 96.275 C 311.176 96.667,311.078 96.863,310.882 96.863 C 310.664 96.863,310.588 97.092,310.588 97.745 C 310.588 98.399,310.512 98.627,310.294 98.627 C 310.098 98.627,310.000 98.824,310.000 99.216 C 310.000 99.608,309.902 99.804,309.706 99.804 C 309.502 99.804,309.412 100.008,309.412 100.467 C 309.412 100.966,309.314 101.156,309.020 101.233 C 308.708 101.315,308.627 101.501,308.627 102.139 C 308.627 102.721,308.547 102.941,308.333 102.941 C 308.140 102.941,308.039 103.135,308.039 103.508 C 308.039 103.832,307.913 104.124,307.745 104.189 C 307.544 104.266,307.451 104.581,307.451 105.190 C 307.451 105.849,307.375 106.078,307.157 106.078 C 306.928 106.078,306.863 106.340,306.863 107.255 C 306.863 108.170,306.797 108.431,306.569 108.431 C 306.352 108.431,306.275 108.658,306.275 109.293 C 306.275 109.878,306.180 110.190,305.980 110.267 C 305.764 110.350,305.686 110.692,305.686 111.562 C 305.686 112.483,305.621 112.745,305.392 112.745 C 305.157 112.745,305.098 113.039,305.098 114.216 C 305.098 115.392,305.039 115.686,304.804 115.686 C 304.563 115.686,304.510 116.024,304.510 117.549 C 304.510 118.999,304.450 119.412,304.240 119.412 C 303.837 119.412,303.725 120.325,303.725 123.631 C 303.725 126.111,303.675 126.644,303.431 126.738 C 303.199 126.827,303.137 127.237,303.137 128.705 C 303.137 130.093,303.211 130.634,303.431 130.854 C 303.660 131.083,303.725 131.670,303.725 133.491 C 303.725 136.163,303.855 137.059,304.240 137.059 C 304.441 137.059,304.510 137.383,304.510 138.333 C 304.510 139.336,304.573 139.608,304.804 139.608 C 305.033 139.608,305.098 139.869,305.098 140.784 C 305.098 141.699,305.163 141.961,305.392 141.961 C 305.598 141.961,305.686 142.168,305.686 142.647 C 305.686 143.126,305.775 143.333,305.980 143.333 C 306.198 143.333,306.275 143.562,306.275 144.216 C 306.275 144.869,306.351 145.098,306.569 145.098 C 306.765 145.098,306.863 145.294,306.863 145.686 C 306.863 146.078,306.961 146.275,307.157 146.275 C 307.353 146.275,307.451 146.471,307.451 146.863 C 307.451 147.255,307.549 147.451,307.745 147.451 C 307.929 147.451,308.039 147.637,308.039 147.947 C 308.039 148.220,308.172 148.494,308.333 148.557 C 308.495 148.619,308.627 148.801,308.627 148.961 C 308.627 149.121,308.804 149.299,309.020 149.355 C 309.235 149.411,309.412 149.580,309.412 149.729 C 309.412 149.878,309.544 150.000,309.706 150.000 C 309.902 150.000,310.000 150.196,310.000 150.588 C 310.000 150.980,310.098 151.176,310.294 151.176 C 310.456 151.176,310.588 151.309,310.588 151.471 C 310.588 151.632,310.721 151.765,310.882 151.765 C 311.044 151.765,311.176 151.897,311.176 152.059 C 311.176 152.221,311.309 152.353,311.471 152.353 C 311.632 152.353,311.765 152.485,311.765 152.647 C 311.765 152.809,311.897 152.941,312.059 152.941 C 312.221 152.941,312.353 153.074,312.353 153.235 C 312.353 153.397,312.485 153.529,312.647 153.529 C 312.809 153.529,312.941 153.631,312.941 153.756 C 312.941 154.175,314.508 155.490,315.008 155.490 C 315.306 155.490,315.490 155.603,315.490 155.784 C 315.490 155.946,315.623 156.078,315.784 156.078 C 315.946 156.078,316.078 156.211,316.078 156.373 C 316.078 156.569,316.275 156.667,316.667 156.667 C 317.059 156.667,317.255 156.765,317.255 156.961 C 317.255 157.123,317.387 157.255,317.549 157.255 C 317.711 157.255,317.843 157.387,317.843 157.549 C 317.843 157.743,318.037 157.843,318.410 157.843 C 318.734 157.843,319.026 157.970,319.091 158.137 C 319.168 158.339,319.483 158.431,320.092 158.431 C 320.850 158.431,320.980 158.489,320.980 158.824 C 320.980 159.114,321.111 159.216,321.485 159.216 C 321.762 159.216,322.121 159.348,322.283 159.510 C 322.445 159.672,322.870 159.804,323.228 159.804 C 323.626 159.804,323.923 159.918,323.992 160.098 C 324.075 160.314,324.415 160.392,325.267 160.392 C 326.119 160.392,326.459 160.471,326.541 160.686 C 326.629 160.916,327.019 160.980,328.306 160.980 C 329.594 160.980,329.983 161.045,330.071 161.275 C 330.166 161.523,330.834 161.569,334.406 161.569 C 338.028 161.569,338.627 161.610,338.627 161.863 C 338.627 162.059,338.824 162.157,339.216 162.157 C 339.608 162.157,339.804 162.059,339.804 161.863 C 339.804 161.611,340.371 161.569,343.732 161.569 C 347.042 161.569,347.677 161.522,347.772 161.275 C 347.858 161.050,348.227 160.980,349.335 160.980 C 350.493 160.980,350.784 160.921,350.784 160.686 C 350.784 160.457,351.046 160.392,351.967 160.392 C 352.837 160.392,353.179 160.314,353.262 160.098 C 353.336 159.906,353.642 159.804,354.145 159.804 C 354.648 159.804,354.953 159.702,355.027 159.510 C 355.101 159.316,355.408 159.216,355.922 159.216 C 356.538 159.216,356.725 159.133,356.806 158.824 C 356.883 158.529,357.073 158.431,357.572 158.431 C 358.031 158.431,358.235 158.341,358.235 158.137 C 358.235 157.919,358.464 157.843,359.118 157.843 C 359.771 157.843,360.000 157.767,360.000 157.549 C 360.000 157.353,360.196 157.255,360.588 157.255 C 360.980 157.255,361.176 157.157,361.176 156.961 C 361.176 156.765,361.373 156.667,361.765 156.667 C 362.157 156.667,362.353 156.569,362.353 156.373 C 362.353 156.209,362.527 156.078,362.745 156.078 C 362.963 156.078,363.137 155.948,363.137 155.784 C 363.137 155.588,363.333 155.490,363.725 155.490 C 364.118 155.490,364.314 155.392,364.314 155.196 C 364.314 155.012,364.500 154.902,364.810 154.902 C 365.083 154.902,365.357 154.770,365.419 154.608 C 365.481 154.446,365.655 154.314,365.805 154.314 C 365.956 154.314,366.078 154.137,366.078 153.922 C 366.078 153.617,366.209 153.529,366.667 153.529 C 367.059 153.529,367.255 153.431,367.255 153.235 C 367.255 153.074,367.387 152.941,367.549 152.941 C 367.711 152.941,367.843 152.809,367.843 152.647 C 367.843 152.450,368.040 152.353,368.438 152.353 C 368.785 152.353,369.079 152.231,369.145 152.059 C 369.207 151.897,369.381 151.765,369.531 151.765 C 369.681 151.765,369.804 151.632,369.804 151.471 C 369.804 151.309,369.936 151.176,370.098 151.176 C 370.260 151.176,370.392 151.044,370.392 150.882 C 370.392 150.721,370.525 150.588,370.686 150.588 C 370.848 150.588,370.980 150.456,370.980 150.294 C 370.980 150.110,371.166 150.000,371.477 150.000 C 371.750 150.000,372.024 149.868,372.086 149.706 C 372.148 149.544,372.322 149.412,372.472 149.412 C 372.622 149.412,372.745 149.290,372.745 149.141 C 372.745 148.991,372.922 148.823,373.137 148.767 C 373.353 148.710,373.529 148.524,373.529 148.352 C 373.529 148.180,373.662 148.039,373.824 148.039 C 373.985 148.039,374.118 147.907,374.118 147.745 C 374.118 147.583,374.250 147.451,374.412 147.451 C 374.574 147.451,374.706 147.319,374.706 147.157 C 374.706 146.995,374.838 146.863,375.000 146.863 C 375.162 146.863,375.294 146.730,375.294 146.569 C 375.294 146.407,375.426 146.275,375.588 146.275 C 375.750 146.275,375.882 146.142,375.882 145.980 C 375.882 145.819,376.015 145.686,376.176 145.686 C 376.338 145.686,376.474 145.576,376.479 145.441 C 376.483 145.306,376.748 144.980,377.067 144.715 C 377.402 144.438,377.647 144.044,377.647 143.784 C 377.647 143.514,377.765 143.333,377.941 143.333 C 378.105 143.333,378.235 143.159,378.235 142.941 C 378.235 142.680,378.366 142.549,378.627 142.549 C 378.845 142.549,379.020 142.418,379.020 142.255 C 379.020 142.093,379.152 141.961,379.314 141.961 C 379.475 141.961,379.608 141.838,379.608 141.688 C 379.608 141.537,379.740 141.364,379.902 141.302 C 380.064 141.240,380.196 140.965,380.196 140.692 C 380.196 140.382,380.306 140.196,380.490 140.196 C 380.652 140.196,380.784 140.064,380.784 139.902 C 380.784 139.740,380.917 139.608,381.078 139.608 C 381.275 139.608,381.373 139.412,381.373 139.020 C 381.373 138.627,381.471 138.431,381.667 138.431 C 381.830 138.431,381.961 138.257,381.961 138.039 C 381.961 137.821,382.092 137.647,382.255 137.647 C 382.451 137.647,382.549 137.451,382.549 137.059 C 382.549 136.667,382.647 136.471,382.843 136.471 C 383.005 136.471,383.137 136.338,383.137 136.176 C 383.137 136.015,383.270 135.882,383.431 135.882 C 383.625 135.882,383.725 135.689,383.725 135.317 C 383.725 134.917,383.840 134.722,384.118 134.649 C 384.377 134.581,384.510 134.382,384.510 134.059 C 384.510 133.791,384.642 133.521,384.804 133.459 C 384.976 133.393,385.098 133.099,385.098 132.751 C 385.098 132.354,385.195 132.157,385.392 132.157 C 385.588 132.157,385.686 131.961,385.686 131.569 C 385.686 131.176,385.784 130.980,385.980 130.980 C 386.176 130.980,386.275 130.784,386.275 130.392 C 386.275 130.000,386.373 129.804,386.569 129.804 C 386.762 129.804,386.863 129.610,386.863 129.237 C 386.863 128.913,386.989 128.621,387.157 128.557 C 387.358 128.479,387.451 128.164,387.451 127.555 C 387.451 126.896,387.527 126.667,387.745 126.667 C 387.941 126.667,388.039 126.471,388.039 126.078 C 388.039 125.686,388.137 125.490,388.333 125.490 C 388.551 125.490,388.627 125.261,388.627 124.608 C 388.627 123.954,388.704 123.725,388.922 123.725 C 389.143 123.725,389.216 123.488,389.216 122.768 C 389.216 121.975,389.283 121.793,389.608 121.708 C 389.919 121.626,390.000 121.440,390.000 120.803 C 390.000 120.220,390.081 120.000,390.294 120.000 C 390.522 120.000,390.588 119.741,390.588 118.845 C 390.588 117.998,390.667 117.659,390.882 117.576 C 391.099 117.493,391.176 117.151,391.176 116.281 C 391.176 115.360,391.242 115.098,391.471 115.098 C 391.699 115.098,391.765 114.839,391.765 113.943 C 391.765 113.096,391.843 112.757,392.059 112.674 C 392.290 112.585,392.353 112.184,392.353 110.790 C 392.353 109.347,392.407 109.020,392.647 109.020 C 392.894 109.020,392.941 108.584,392.941 106.275 C 392.941 103.965,392.988 103.529,393.235 103.529 C 393.489 103.529,393.529 102.854,393.529 98.627 C 393.529 94.401,393.489 93.725,393.235 93.725 C 392.992 93.725,392.941 93.365,392.941 91.661 C 392.941 90.006,392.883 89.573,392.647 89.483 C 392.422 89.396,392.353 89.028,392.353 87.920 C 392.353 86.762,392.294 86.471,392.059 86.471 C 391.841 86.471,391.765 86.242,391.765 85.588 C 391.765 84.935,391.688 84.706,391.471 84.706 C 391.265 84.706,391.176 84.499,391.176 84.020 C 391.176 83.540,391.088 83.333,390.882 83.333 C 390.670 83.333,390.588 83.115,390.588 82.543 C 390.588 82.050,390.486 81.713,390.316 81.648 C 390.166 81.591,389.992 81.284,389.929 80.968 C 389.862 80.633,389.689 80.392,389.515 80.392 C 389.350 80.392,389.216 80.260,389.216 80.098 C 389.216 79.936,389.083 79.804,388.922 79.804 C 388.716 79.804,388.627 79.597,388.627 79.118 C 388.627 78.638,388.539 78.431,388.333 78.431 C 388.172 78.431,388.039 78.299,388.039 78.137 C 388.039 77.975,387.907 77.843,387.745 77.843 C 387.549 77.843,387.451 77.647,387.451 77.255 C 387.451 76.863,387.353 76.667,387.157 76.667 C 386.995 76.667,386.863 76.534,386.863 76.373 C 386.863 76.211,386.730 76.078,386.569 76.078 C 386.407 76.078,386.275 75.946,386.275 75.784 C 386.275 75.623,386.142 75.490,385.980 75.490 C 385.819 75.490,385.686 75.358,385.686 75.196 C 385.686 75.034,385.554 74.902,385.392 74.902 C 385.230 74.902,385.098 74.770,385.098 74.608 C 385.098 74.446,384.972 74.314,384.817 74.314 C 384.663 74.314,384.480 74.137,384.412 73.922 C 384.343 73.706,384.161 73.529,384.006 73.529 C 383.852 73.529,383.725 73.397,383.725 73.235 C 383.725 73.074,383.603 72.941,383.452 72.941 C 383.302 72.941,383.128 72.809,383.066 72.647 C 383.004 72.485,382.730 72.353,382.457 72.353 C 382.147 72.353,381.961 72.243,381.961 72.059 C 381.961 71.897,381.828 71.765,381.667 71.765 C 381.505 71.765,381.373 71.632,381.373 71.471 C 381.373 71.309,381.250 71.176,381.099 71.176 C 380.949 71.176,380.775 71.044,380.713 70.882 C 380.651 70.721,380.377 70.588,380.104 70.588 C 379.794 70.588,379.608 70.478,379.608 70.294 C 379.608 70.089,379.401 70.000,378.922 70.000 C 378.442 70.000,378.235 69.911,378.235 69.706 C 378.235 69.512,378.042 69.412,377.670 69.412 C 377.269 69.412,377.075 69.297,377.002 69.020 C 376.934 68.760,376.735 68.627,376.412 68.627 C 376.144 68.627,375.874 68.495,375.811 68.333 C 375.749 68.172,375.485 68.039,375.223 68.039 C 374.962 68.039,374.697 67.907,374.635 67.745 C 374.558 67.544,374.243 67.451,373.634 67.451 C 372.975 67.451,372.745 67.375,372.745 67.157 C 372.745 66.929,372.486 66.863,371.590 66.863 C 370.743 66.863,370.404 66.784,370.321 66.569 C 370.232 66.337,369.831 66.275,368.438 66.275 C 366.994 66.275,366.667 66.220,366.667 65.980 C 366.667 65.724,365.654 65.686,358.725 65.686 C 351.797 65.686,350.784 65.724,350.784 65.980 M66.345 66.569 C 66.257 66.800,65.857 66.863,64.483 66.863 C 63.108 66.863,62.709 66.926,62.620 67.157 C 62.537 67.372,62.198 67.451,61.352 67.451 C 60.455 67.451,60.196 67.517,60.196 67.745 C 60.196 67.974,59.934 68.039,59.013 68.039 C 58.143 68.039,57.801 68.117,57.718 68.333 C 57.656 68.495,57.416 68.629,57.185 68.630 C 56.456 68.635,55.882 68.859,55.882 69.141 C 55.882 69.331,55.621 69.412,55.000 69.412 C 54.346 69.412,54.118 69.488,54.118 69.706 C 54.118 69.911,53.911 70.000,53.431 70.000 C 52.952 70.000,52.745 70.089,52.745 70.294 C 52.745 70.512,52.516 70.588,51.863 70.588 C 51.209 70.588,50.980 70.664,50.980 70.882 C 50.980 71.078,50.784 71.176,50.392 71.176 C 50.000 71.176,49.804 71.275,49.804 71.471 C 49.804 71.667,49.608 71.765,49.216 71.765 C 48.824 71.765,48.627 71.863,48.627 72.059 C 48.627 72.256,48.431 72.353,48.033 72.353 C 47.686 72.353,47.392 72.475,47.326 72.647 C 47.264 72.809,46.999 72.941,46.738 72.941 C 46.476 72.941,46.213 73.068,46.154 73.223 C 46.094 73.378,45.788 73.562,45.474 73.631 C 45.159 73.700,44.902 73.882,44.902 74.035 C 44.902 74.188,44.770 74.314,44.608 74.314 C 44.446 74.314,44.314 74.446,44.314 74.608 C 44.314 74.804,44.118 74.902,43.725 74.902 C 43.333 74.902,43.137 75.000,43.137 75.196 C 43.137 75.358,43.002 75.490,42.837 75.490 C 42.672 75.490,42.486 75.623,42.424 75.784 C 42.360 75.952,42.067 76.078,41.744 76.078 C 41.370 76.078,41.176 76.179,41.176 76.373 C 41.176 76.534,41.044 76.667,40.882 76.667 C 40.721 76.667,40.588 76.799,40.588 76.961 C 40.588 77.145,40.402 77.255,40.092 77.255 C 39.819 77.255,39.545 77.387,39.483 77.549 C 39.421 77.711,39.247 77.843,39.097 77.843 C 38.946 77.843,38.824 77.975,38.824 78.137 C 38.824 78.299,38.691 78.431,38.529 78.431 C 38.368 78.431,38.235 78.564,38.235 78.725 C 38.235 78.887,38.103 79.020,37.941 79.020 C 37.778 79.020,37.647 79.194,37.647 79.412 C 37.647 79.706,37.516 79.804,37.123 79.804 C 36.758 79.804,36.343 80.072,35.754 80.686 C 35.289 81.172,34.819 81.569,34.709 81.569 C 34.600 81.569,34.510 81.701,34.510 81.863 C 34.510 82.025,34.377 82.157,34.216 82.157 C 34.054 82.157,33.922 82.289,33.922 82.451 C 33.922 82.613,33.789 82.745,33.627 82.745 C 33.466 82.745,33.333 82.877,33.333 83.039 C 33.333 83.201,33.201 83.333,33.039 83.333 C 32.877 83.333,32.745 83.468,32.745 83.634 C 32.745 83.799,32.613 83.985,32.451 84.047 C 32.289 84.109,32.157 84.283,32.157 84.433 C 32.157 84.583,32.032 84.706,31.878 84.706 C 31.725 84.706,31.542 84.971,31.471 85.294 C 31.400 85.618,31.216 85.882,31.063 85.882 C 30.910 85.882,30.784 86.015,30.784 86.176 C 30.784 86.338,30.652 86.471,30.490 86.471 C 30.328 86.471,30.196 86.603,30.196 86.765 C 30.196 86.926,30.064 87.059,29.902 87.059 C 29.740 87.059,29.608 87.182,29.608 87.332 C 29.608 87.482,29.475 87.656,29.314 87.718 C 29.152 87.780,29.020 88.054,29.020 88.327 C 29.020 88.638,28.909 88.824,28.725 88.824 C 28.564 88.824,28.431 88.956,28.431 89.118 C 28.431 89.279,28.299 89.412,28.137 89.412 C 27.974 89.412,27.843 89.586,27.843 89.804 C 27.843 90.022,27.712 90.196,27.549 90.196 C 27.353 90.196,27.255 90.392,27.255 90.784 C 27.255 91.176,27.157 91.373,26.961 91.373 C 26.799 91.373,26.667 91.505,26.667 91.667 C 26.667 91.828,26.532 91.961,26.368 91.961 C 26.192 91.961,26.020 92.204,25.951 92.549 C 25.886 92.873,25.712 93.137,25.564 93.137 C 25.395 93.137,25.294 93.357,25.294 93.725 C 25.294 94.118,25.196 94.314,25.000 94.314 C 24.837 94.314,24.706 94.488,24.706 94.706 C 24.706 94.924,24.575 95.098,24.412 95.098 C 24.216 95.098,24.118 95.294,24.118 95.686 C 24.118 96.078,24.020 96.275,23.824 96.275 C 23.627 96.275,23.529 96.471,23.529 96.863 C 23.529 97.255,23.431 97.451,23.235 97.451 C 23.039 97.451,22.941 97.647,22.941 98.039 C 22.941 98.431,22.843 98.627,22.647 98.627 C 22.453 98.627,22.353 98.821,22.353 99.195 C 22.353 99.518,22.226 99.810,22.059 99.875 C 21.859 99.952,21.765 100.265,21.765 100.853 C 21.765 101.554,21.690 101.739,21.373 101.822 C 21.133 101.884,20.980 102.089,20.980 102.349 C 20.980 102.582,20.848 102.905,20.686 103.067 C 20.525 103.229,20.392 103.654,20.392 104.013 C 20.392 104.411,20.278 104.708,20.098 104.777 C 19.896 104.854,19.804 105.169,19.804 105.778 C 19.804 106.437,19.728 106.667,19.510 106.667 C 19.293 106.667,19.216 106.893,19.216 107.528 C 19.216 108.113,19.121 108.426,18.922 108.502 C 18.709 108.584,18.627 108.917,18.627 109.706 C 18.627 110.495,18.546 110.828,18.333 110.909 C 18.109 110.996,18.039 111.364,18.039 112.472 C 18.039 113.630,17.980 113.922,17.745 113.922 C 17.504 113.922,17.451 114.259,17.451 115.784 C 17.451 117.309,17.398 117.647,17.157 117.647 C 16.908 117.647,16.863 118.115,16.863 120.686 C 16.863 123.257,16.817 123.725,16.569 123.725 C 16.126 123.725,16.126 132.701,16.569 132.870 C 16.807 132.962,16.863 133.423,16.863 135.315 C 16.863 137.257,16.912 137.647,17.157 137.647 C 17.394 137.647,17.451 137.952,17.451 139.216 C 17.451 140.479,17.508 140.784,17.745 140.784 C 17.963 140.784,18.039 141.013,18.039 141.667 C 18.039 142.320,18.115 142.549,18.333 142.549 C 18.552 142.549,18.627 142.778,18.627 143.438 C 18.627 144.046,18.720 144.362,18.922 144.439 C 19.089 144.503,19.216 144.796,19.216 145.119 C 19.216 145.493,19.316 145.686,19.510 145.686 C 19.706 145.686,19.804 145.882,19.804 146.275 C 19.804 146.667,19.902 146.863,20.098 146.863 C 20.294 146.863,20.392 147.059,20.392 147.451 C 20.392 147.822,20.493 148.039,20.664 148.039 C 20.820 148.039,20.992 148.332,21.065 148.725 C 21.143 149.136,21.309 149.412,21.479 149.412 C 21.636 149.412,21.765 149.544,21.765 149.706 C 21.765 149.868,21.897 150.000,22.059 150.000 C 22.255 150.000,22.353 150.196,22.353 150.588 C 22.353 150.980,22.451 151.176,22.647 151.176 C 22.809 151.176,22.941 151.309,22.941 151.471 C 22.941 151.632,23.074 151.765,23.235 151.765 C 23.397 151.765,23.529 151.897,23.529 152.059 C 23.529 152.221,23.662 152.353,23.824 152.353 C 23.985 152.353,24.118 152.485,24.118 152.647 C 24.118 152.809,24.250 152.941,24.412 152.941 C 24.574 152.941,24.706 153.074,24.706 153.235 C 24.706 153.397,24.838 153.529,25.000 153.529 C 25.162 153.529,25.294 153.627,25.294 153.747 C 25.294 154.048,26.123 154.894,26.422 154.899 C 26.556 154.900,26.667 155.034,26.667 155.196 C 26.667 155.358,26.799 155.490,26.961 155.490 C 27.123 155.490,27.255 155.623,27.255 155.784 C 27.255 155.980,27.451 156.078,27.843 156.078 C 28.235 156.078,28.431 156.176,28.431 156.373 C 28.431 156.534,28.564 156.667,28.725 156.667 C 28.887 156.667,29.020 156.799,29.020 156.961 C 29.020 157.157,29.216 157.255,29.608 157.255 C 30.000 157.255,30.196 157.353,30.196 157.549 C 30.196 157.743,30.390 157.843,30.763 157.843 C 31.087 157.843,31.379 157.970,31.443 158.137 C 31.509 158.309,31.803 158.431,32.151 158.431 C 32.526 158.431,32.745 158.531,32.745 158.703 C 32.745 158.984,33.318 159.208,34.048 159.213 C 34.279 159.214,34.519 159.348,34.581 159.510 C 34.662 159.721,34.993 159.804,35.757 159.804 C 36.522 159.804,36.853 159.887,36.934 160.098 C 37.020 160.323,37.391 160.392,38.523 160.392 C 39.705 160.392,40.000 160.451,40.000 160.686 C 40.000 160.942,40.905 160.980,46.967 160.980 C 52.979 160.980,53.949 160.940,54.047 160.686 C 54.133 160.462,54.502 160.392,55.609 160.392 C 56.767 160.392,57.059 160.333,57.059 160.098 C 57.059 159.880,57.288 159.804,57.947 159.804 C 58.556 159.804,58.871 159.711,58.949 159.510 C 59.023 159.316,59.329 159.216,59.843 159.216 C 60.460 159.216,60.647 159.133,60.728 158.824 C 60.810 158.507,60.995 158.431,61.690 158.431 C 62.323 158.431,62.549 158.354,62.549 158.137 C 62.549 157.941,62.745 157.843,63.137 157.843 C 63.529 157.843,63.725 157.745,63.725 157.549 C 63.725 157.331,63.955 157.255,64.614 157.255 C 65.223 157.255,65.538 157.162,65.615 156.961 C 65.677 156.799,65.942 156.667,66.204 156.667 C 66.465 156.667,66.730 156.534,66.792 156.373 C 66.856 156.205,67.149 156.078,67.472 156.078 C 67.845 156.078,68.039 155.978,68.039 155.784 C 68.039 155.588,68.235 155.490,68.627 155.490 C 68.998 155.490,69.216 155.390,69.216 155.219 C 69.216 155.070,69.392 154.902,69.608 154.845 C 69.943 154.757,70.000 154.839,70.000 155.411 C 70.000 155.873,70.090 156.078,70.294 156.078 C 70.512 156.078,70.588 156.307,70.588 156.961 C 70.588 157.614,70.664 157.843,70.882 157.843 C 71.101 157.843,71.176 158.073,71.176 158.732 C 71.176 159.341,71.269 159.656,71.471 159.733 C 71.663 159.807,71.765 160.112,71.765 160.615 C 71.765 161.118,71.867 161.424,72.059 161.498 C 72.226 161.562,72.353 161.854,72.353 162.178 L 72.353 162.745 76.281 162.745 C 79.591 162.745,80.226 162.699,80.321 162.451 C 80.416 162.203,81.048 162.157,84.335 162.157 C 87.671 162.157,88.235 162.114,88.235 161.863 C 88.235 161.612,88.769 161.569,91.863 161.569 L 95.490 161.569 95.490 160.686 C 95.490 160.033,95.414 159.804,95.196 159.804 C 94.965 159.804,94.902 159.532,94.902 158.529 C 94.902 157.527,94.839 157.255,94.608 157.255 C 94.368 157.255,94.314 156.928,94.314 155.490 C 94.314 154.052,94.259 153.725,94.020 153.725 C 93.776 153.725,93.725 153.355,93.725 151.569 C 93.725 149.782,93.675 149.412,93.431 149.412 C 93.176 149.412,93.137 148.627,93.137 143.529 C 93.137 138.431,93.176 137.647,93.431 137.647 C 93.674 137.647,93.725 137.288,93.725 135.588 C 93.725 133.889,93.777 133.529,94.020 133.529 C 94.257 133.529,94.314 133.224,94.314 131.961 C 94.314 130.697,94.371 130.392,94.608 130.392 C 94.825 130.392,94.902 130.166,94.902 129.531 C 94.902 128.946,94.996 128.633,95.196 128.557 C 95.412 128.474,95.490 128.134,95.490 127.284 C 95.490 126.289,95.546 126.110,95.882 126.022 C 96.192 125.941,96.275 125.754,96.275 125.137 C 96.275 124.623,96.375 124.317,96.569 124.243 C 96.761 124.169,96.863 123.864,96.863 123.360 C 96.863 122.857,96.965 122.552,97.157 122.478 C 97.358 122.401,97.451 122.086,97.451 121.477 C 97.451 120.818,97.527 120.588,97.745 120.588 C 97.963 120.588,98.039 120.359,98.039 119.706 C 98.039 119.052,98.115 118.824,98.333 118.824 C 98.550 118.824,98.627 118.597,98.627 117.962 C 98.627 117.377,98.722 117.065,98.922 116.988 C 99.123 116.911,99.216 116.595,99.216 115.987 C 99.216 115.327,99.292 115.098,99.510 115.098 C 99.728 115.098,99.804 114.869,99.804 114.216 C 99.804 113.562,99.880 113.333,100.098 113.333 C 100.316 113.333,100.392 113.105,100.392 112.451 C 100.392 111.797,100.468 111.569,100.686 111.569 C 100.908 111.569,100.980 111.329,100.980 110.588 C 100.980 109.739,101.033 109.608,101.373 109.608 C 101.707 109.608,101.765 109.477,101.765 108.725 C 101.765 108.072,101.841 107.843,102.059 107.843 C 102.281 107.843,102.353 107.603,102.353 106.863 C 102.353 106.122,102.425 105.882,102.647 105.882 C 102.865 105.882,102.941 105.654,102.941 105.000 C 102.941 104.346,103.017 104.118,103.235 104.118 C 103.453 104.118,103.529 103.889,103.529 103.235 C 103.529 102.582,103.606 102.353,103.824 102.353 C 104.029 102.353,104.118 102.146,104.118 101.667 C 104.118 101.187,104.206 100.980,104.412 100.980 C 104.630 100.980,104.706 100.752,104.706 100.098 C 104.706 99.444,104.782 99.216,105.000 99.216 C 105.218 99.216,105.294 98.987,105.294 98.333 C 105.294 97.680,105.370 97.451,105.588 97.451 C 105.806 97.451,105.882 97.222,105.882 96.562 C 105.882 95.954,105.975 95.638,106.176 95.561 C 106.376 95.484,106.471 95.172,106.471 94.587 C 106.471 93.984,106.552 93.725,106.742 93.725 C 107.013 93.725,107.247 93.157,107.252 92.486 C 107.254 92.290,107.387 91.996,107.549 91.835 C 107.711 91.673,107.843 91.235,107.843 90.862 C 107.843 90.440,107.954 90.141,108.137 90.071 C 108.337 89.994,108.431 89.681,108.431 89.097 C 108.431 88.462,108.509 88.235,108.725 88.235 C 108.943 88.235,109.020 88.007,109.020 87.353 C 109.020 86.699,109.096 86.471,109.314 86.471 C 109.536 86.471,109.608 86.231,109.608 85.490 C 109.608 84.749,109.680 84.510,109.902 84.510 C 110.120 84.510,110.196 84.281,110.196 83.627 C 110.196 82.974,110.272 82.745,110.490 82.745 C 110.708 82.745,110.784 82.516,110.784 81.863 C 110.784 81.209,110.861 80.980,111.078 80.980 C 111.300 80.980,111.373 80.743,111.373 80.023 C 111.373 79.230,111.440 79.048,111.765 78.963 C 112.074 78.882,112.157 78.695,112.157 78.079 C 112.157 77.551,112.256 77.259,112.463 77.179 C 113.110 76.931,112.745 75.598,112.010 75.527 C 111.615 75.489,111.373 75.358,111.373 75.184 C 111.373 75.001,111.165 74.902,110.784 74.902 C 110.392 74.902,110.196 74.804,110.196 74.608 C 110.196 74.412,110.000 74.314,109.608 74.314 C 109.238 74.314,109.020 74.213,109.020 74.042 C 109.020 73.761,108.446 73.537,107.717 73.532 C 107.486 73.531,107.246 73.397,107.184 73.235 C 107.118 73.063,106.824 72.941,106.477 72.941 C 106.079 72.941,105.882 72.844,105.882 72.647 C 105.882 72.453,105.689 72.353,105.315 72.353 C 104.992 72.353,104.699 72.226,104.635 72.059 C 104.560 71.865,104.253 71.765,103.732 71.765 C 103.160 71.765,102.941 71.683,102.941 71.471 C 102.941 71.248,102.702 71.176,101.961 71.176 C 101.220 71.176,100.980 71.105,100.980 70.882 C 100.980 70.664,100.752 70.588,100.098 70.588 C 99.444 70.588,99.216 70.512,99.216 70.294 C 99.216 70.076,98.987 70.000,98.333 70.000 C 97.680 70.000,97.451 69.924,97.451 69.706 C 97.451 69.475,97.181 69.412,96.199 69.412 C 95.113 69.412,94.934 69.360,94.845 69.020 C 94.766 68.717,94.578 68.627,94.024 68.627 C 93.629 68.627,93.173 68.495,93.011 68.333 C 92.806 68.128,92.305 68.039,91.359 68.039 C 90.282 68.039,90.000 67.978,90.000 67.745 C 90.000 67.510,89.708 67.451,88.550 67.451 C 87.443 67.451,87.074 67.382,86.988 67.157 C 86.898 66.921,86.467 66.863,84.831 66.863 C 83.195 66.863,82.765 66.804,82.674 66.569 C 82.576 66.314,81.486 66.275,74.510 66.275 C 67.534 66.275,66.443 66.314,66.345 66.569 M177.451 86.765 C 177.451 87.000,177.743 87.059,178.901 87.059 C 180.008 87.059,180.377 87.128,180.463 87.353 C 180.540 87.555,180.856 87.647,181.464 87.647 C 182.123 87.647,182.353 87.723,182.353 87.941 C 182.353 88.137,182.549 88.235,182.941 88.235 C 183.333 88.235,183.529 88.333,183.529 88.529 C 183.529 88.691,183.662 88.824,183.824 88.824 C 183.985 88.824,184.118 88.956,184.118 89.118 C 184.118 89.314,184.314 89.412,184.706 89.412 C 185.029 89.412,185.294 89.513,185.294 89.637 C 185.294 89.761,185.603 90.162,185.980 90.529 C 186.358 90.895,186.667 91.368,186.667 91.578 C 186.667 91.789,186.799 91.961,186.961 91.961 C 187.123 91.961,187.255 92.093,187.255 92.255 C 187.255 92.417,187.387 92.549,187.549 92.549 C 187.767 92.549,187.843 92.778,187.843 93.431 C 187.843 94.085,187.919 94.314,188.137 94.314 C 188.359 94.314,188.431 94.553,188.431 95.294 C 188.431 96.035,188.503 96.275,188.725 96.275 C 188.977 96.275,189.020 96.841,189.020 100.196 C 189.020 103.551,188.977 104.118,188.725 104.118 C 188.485 104.118,188.431 104.455,188.431 105.980 C 188.431 107.505,188.378 107.843,188.137 107.843 C 187.908 107.843,187.843 108.105,187.843 109.020 C 187.843 109.935,187.778 110.196,187.549 110.196 C 187.318 110.196,187.255 110.468,187.255 111.471 C 187.255 112.429,187.187 112.745,186.982 112.745 C 186.654 112.745,186.471 113.167,186.471 113.917 C 186.471 114.226,186.341 114.517,186.176 114.581 C 186.015 114.643,185.882 114.906,185.882 115.166 C 185.882 115.426,185.750 115.748,185.588 115.882 C 185.419 116.023,185.294 116.450,185.294 116.887 C 185.294 117.432,185.211 117.647,185.000 117.647 C 184.804 117.647,184.706 117.843,184.706 118.235 C 184.706 118.627,184.608 118.824,184.412 118.824 C 184.216 118.824,184.118 119.020,184.118 119.412 C 184.118 119.804,184.020 120.000,183.824 120.000 C 183.627 120.000,183.529 120.196,183.529 120.588 C 183.529 120.980,183.431 121.176,183.235 121.176 C 183.030 121.176,182.941 121.383,182.941 121.863 C 182.941 122.342,182.852 122.549,182.647 122.549 C 182.485 122.549,182.353 122.681,182.353 122.843 C 182.353 123.005,182.221 123.137,182.059 123.137 C 181.863 123.137,181.765 123.333,181.765 123.725 C 181.765 124.049,181.667 124.314,181.547 124.314 C 181.157 124.314,180.399 125.185,180.396 125.637 C 180.394 125.897,180.271 126.078,180.098 126.078 C 179.936 126.078,179.804 126.201,179.804 126.352 C 179.804 126.502,179.672 126.675,179.510 126.738 C 179.348 126.800,179.216 126.986,179.216 127.151 C 179.216 127.316,179.083 127.451,178.922 127.451 C 178.760 127.451,178.627 127.583,178.627 127.745 C 178.627 127.907,178.495 128.039,178.333 128.039 C 178.172 128.039,178.039 128.172,178.039 128.333 C 178.039 128.495,177.907 128.627,177.745 128.627 C 177.583 128.627,177.451 128.760,177.451 128.922 C 177.451 129.083,177.319 129.216,177.157 129.216 C 176.995 129.216,176.863 129.348,176.863 129.510 C 176.863 129.672,176.730 129.804,176.569 129.804 C 176.407 129.804,176.275 129.936,176.275 130.098 C 176.275 130.260,176.142 130.392,175.980 130.392 C 175.819 130.392,175.686 130.525,175.686 130.686 C 175.686 130.848,175.588 130.980,175.467 130.980 C 175.182 130.980,173.725 132.437,173.725 132.722 C 173.725 132.843,173.461 132.941,173.137 132.941 C 172.745 132.941,172.549 133.039,172.549 133.235 C 172.549 133.397,172.417 133.529,172.255 133.529 C 172.093 133.529,171.961 133.662,171.961 133.824 C 171.961 134.020,171.765 134.118,171.373 134.118 C 170.980 134.118,170.784 134.216,170.784 134.412 C 170.784 134.609,170.588 134.706,170.190 134.706 C 169.842 134.706,169.549 134.828,169.483 135.000 C 169.421 135.162,169.156 135.294,168.894 135.294 C 168.633 135.294,168.368 135.426,168.306 135.588 C 168.244 135.750,167.979 135.882,167.718 135.882 C 167.457 135.882,167.192 136.015,167.130 136.176 C 167.065 136.344,166.773 136.471,166.450 136.471 C 166.076 136.471,165.882 136.571,165.882 136.765 C 165.882 136.982,165.655 137.059,165.010 137.059 C 164.420 137.059,164.081 137.159,163.965 137.367 C 163.870 137.537,163.424 137.725,162.974 137.785 C 162.467 137.853,162.157 137.996,162.157 138.163 C 162.157 138.371,161.740 138.431,160.294 138.431 C 158.769 138.431,158.431 138.485,158.431 138.725 C 158.431 138.976,157.898 139.020,154.804 139.020 C 151.710 139.020,151.176 138.976,151.176 138.725 C 151.176 138.489,150.871 138.431,149.608 138.431 L 148.039 138.431 148.039 137.745 C 148.039 137.266,148.128 137.059,148.333 137.059 C 148.551 137.059,148.627 136.830,148.627 136.176 C 148.627 135.523,148.704 135.294,148.922 135.294 C 149.139 135.294,149.216 135.065,149.216 134.412 C 149.216 133.788,149.296 133.529,149.489 133.529 C 149.831 133.529,150.000 133.103,150.000 132.239 C 150.000 131.774,150.090 131.569,150.294 131.569 C 150.512 131.569,150.588 131.340,150.588 130.686 C 150.588 130.033,150.664 129.804,150.882 129.804 C 151.099 129.804,151.176 129.577,151.176 128.943 C 151.176 128.358,151.271 128.045,151.471 127.968 C 151.672 127.891,151.765 127.576,151.765 126.967 C 151.765 126.308,151.841 126.078,152.059 126.078 C 152.277 126.078,152.353 125.850,152.353 125.196 C 152.353 124.542,152.429 124.314,152.647 124.314 C 152.864 124.314,152.941 124.087,152.941 123.452 C 152.941 122.868,153.036 122.555,153.235 122.478 C 153.437 122.401,153.529 122.086,153.529 121.477 C 153.529 120.818,153.605 120.588,153.824 120.588 C 154.040 120.588,154.118 120.362,154.118 119.729 C 154.118 119.034,154.193 118.850,154.510 118.767 C 154.819 118.686,154.902 118.499,154.902 117.882 C 154.902 117.369,155.003 117.062,155.196 116.988 C 155.398 116.911,155.490 116.595,155.490 115.987 C 155.490 115.327,155.566 115.098,155.784 115.098 C 156.002 115.098,156.078 114.869,156.078 114.216 C 156.078 113.562,156.155 113.333,156.373 113.333 C 156.589 113.333,156.667 113.107,156.667 112.472 C 156.667 111.887,156.761 111.574,156.961 111.498 C 157.162 111.420,157.255 111.105,157.255 110.496 C 157.255 109.837,157.331 109.608,157.549 109.608 C 157.767 109.608,157.843 109.379,157.843 108.725 C 157.843 108.072,157.919 107.843,158.137 107.843 C 158.359 107.843,158.431 107.603,158.431 106.863 C 158.431 106.122,158.503 105.882,158.725 105.882 C 158.943 105.882,159.020 105.654,159.020 105.000 C 159.020 104.346,159.096 104.118,159.314 104.118 C 159.530 104.118,159.608 103.891,159.608 103.258 C 159.608 102.564,159.683 102.379,160.000 102.296 C 160.320 102.212,160.392 102.029,160.392 101.293 C 160.392 100.623,160.468 100.392,160.686 100.392 C 160.904 100.392,160.980 100.163,160.980 99.510 C 160.980 98.856,161.057 98.627,161.275 98.627 C 161.492 98.627,161.569 98.399,161.569 97.745 C 161.569 97.092,161.645 96.863,161.863 96.863 C 162.085 96.863,162.157 96.623,162.157 95.882 C 162.157 95.142,162.229 94.902,162.451 94.902 C 162.669 94.902,162.745 94.673,162.745 94.020 C 162.745 93.366,162.821 93.137,163.039 93.137 C 163.257 93.137,163.333 92.908,163.333 92.255 C 163.333 91.601,163.410 91.373,163.627 91.373 C 163.850 91.373,163.922 91.133,163.922 90.392 C 163.922 89.651,163.993 89.412,164.216 89.412 C 164.434 89.412,164.510 89.183,164.510 88.529 C 164.510 87.876,164.586 87.647,164.804 87.647 C 164.966 87.647,165.098 87.515,165.098 87.353 C 165.098 87.191,165.233 87.059,165.398 87.059 C 165.563 87.059,165.749 86.926,165.811 86.765 C 165.908 86.512,166.746 86.471,171.688 86.471 C 176.680 86.471,177.451 86.510,177.451 86.765 M357.647 87.353 C 357.647 87.582,357.908 87.647,358.824 87.647 C 359.739 87.647,360.000 87.712,360.000 87.941 C 360.000 88.159,360.229 88.235,360.882 88.235 C 361.536 88.235,361.765 88.312,361.765 88.529 C 361.765 88.693,361.939 88.824,362.157 88.824 C 362.375 88.824,362.549 88.954,362.549 89.118 C 362.549 89.314,362.745 89.412,363.137 89.412 C 363.595 89.412,363.725 89.499,363.725 89.804 C 363.725 90.022,363.856 90.196,364.020 90.196 C 364.181 90.196,364.314 90.328,364.314 90.490 C 364.314 90.652,364.446 90.784,364.608 90.784 C 364.770 90.784,364.902 90.917,364.902 91.078 C 364.902 91.240,365.034 91.373,365.196 91.373 C 365.392 91.373,365.490 91.569,365.490 91.961 C 365.490 92.353,365.588 92.549,365.784 92.549 C 365.997 92.549,366.078 92.768,366.078 93.339 C 366.078 93.861,366.178 94.168,366.373 94.243 C 366.573 94.320,366.667 94.633,366.667 95.223 C 366.667 95.813,366.761 96.127,366.961 96.204 C 367.199 96.295,367.255 96.754,367.255 98.627 C 367.255 100.501,367.311 100.960,367.549 101.051 C 367.934 101.199,367.979 104.040,367.598 104.166 C 367.420 104.225,367.335 105.054,367.289 107.173 C 367.239 109.449,367.163 110.133,366.946 110.255 C 366.743 110.369,366.667 110.813,366.667 111.872 C 366.667 113.040,366.608 113.333,366.373 113.333 C 366.156 113.333,366.078 113.560,366.078 114.195 C 366.078 114.779,365.984 115.092,365.784 115.169 C 365.583 115.246,365.490 115.561,365.490 116.170 C 365.490 116.829,365.414 117.059,365.196 117.059 C 364.978 117.059,364.902 117.288,364.902 117.941 C 364.902 118.595,364.826 118.824,364.608 118.824 C 364.390 118.824,364.314 119.052,364.314 119.706 C 364.314 120.359,364.237 120.588,364.020 120.588 C 363.814 120.588,363.725 120.795,363.725 121.275 C 363.725 121.754,363.637 121.961,363.431 121.961 C 363.235 121.961,363.137 122.157,363.137 122.549 C 363.137 122.945,363.040 123.137,362.838 123.137 C 362.663 123.137,362.491 123.380,362.422 123.725 C 362.357 124.049,362.183 124.314,362.034 124.314 C 361.865 124.314,361.765 124.534,361.765 124.902 C 361.765 125.294,361.667 125.490,361.471 125.490 C 361.309 125.490,361.176 125.613,361.176 125.763 C 361.176 125.914,361.044 126.087,360.882 126.149 C 360.710 126.215,360.588 126.509,360.588 126.857 C 360.588 127.254,360.491 127.451,360.294 127.451 C 360.132 127.451,360.000 127.583,360.000 127.745 C 360.000 127.907,359.868 128.039,359.706 128.039 C 359.510 128.039,359.412 128.235,359.412 128.627 C 359.412 129.020,359.314 129.216,359.118 129.216 C 358.956 129.216,358.824 129.348,358.824 129.510 C 358.824 129.672,358.691 129.804,358.529 129.804 C 358.368 129.804,358.235 129.936,358.235 130.098 C 358.235 130.260,358.103 130.392,357.941 130.392 C 357.745 130.392,357.647 130.588,357.647 130.980 C 357.647 131.304,357.549 131.569,357.430 131.569 C 357.128 131.569,356.282 132.397,356.278 132.696 C 356.276 132.831,356.142 132.941,355.980 132.941 C 355.819 132.941,355.686 133.074,355.686 133.235 C 355.686 133.397,355.554 133.529,355.392 133.529 C 355.230 133.529,355.098 133.662,355.098 133.824 C 355.098 133.985,354.966 134.118,354.804 134.118 C 354.642 134.118,354.510 134.250,354.510 134.412 C 354.510 134.574,354.377 134.706,354.216 134.706 C 354.054 134.706,353.922 134.838,353.922 135.000 C 353.922 135.196,353.725 135.294,353.333 135.294 C 352.941 135.294,352.745 135.392,352.745 135.588 C 352.745 135.750,352.613 135.882,352.451 135.882 C 352.289 135.882,352.157 136.015,352.157 136.176 C 352.157 136.338,352.022 136.471,351.857 136.471 C 351.691 136.471,351.506 136.603,351.443 136.765 C 351.381 136.926,351.111 137.059,350.843 137.059 C 350.520 137.059,350.321 137.191,350.253 137.451 C 350.180 137.729,349.985 137.843,349.585 137.843 C 349.213 137.843,349.020 137.944,349.020 138.137 C 349.020 138.333,348.824 138.431,348.431 138.431 C 348.039 138.431,347.843 138.529,347.843 138.725 C 347.843 138.922,347.647 139.020,347.255 139.020 C 346.863 139.020,346.667 139.118,346.667 139.314 C 346.667 139.551,346.362 139.608,345.098 139.608 C 343.834 139.608,343.529 139.665,343.529 139.902 C 343.529 140.139,343.224 140.196,341.961 140.196 C 340.697 140.196,340.392 140.139,340.392 139.902 C 340.392 139.667,340.098 139.608,338.922 139.608 C 337.745 139.608,337.451 139.549,337.451 139.314 C 337.451 139.092,337.211 139.020,336.471 139.020 C 335.730 139.020,335.490 138.948,335.490 138.725 C 335.490 138.529,335.294 138.431,334.902 138.431 C 334.510 138.431,334.314 138.333,334.314 138.137 C 334.314 137.975,334.181 137.843,334.020 137.843 C 333.858 137.843,333.725 137.753,333.725 137.642 C 333.725 137.531,333.328 137.044,332.843 136.558 C 332.358 136.073,331.961 135.590,331.961 135.485 C 331.961 135.380,331.828 135.294,331.667 135.294 C 331.483 135.294,331.373 135.108,331.373 134.798 C 331.373 134.525,331.240 134.251,331.078 134.189 C 330.917 134.126,330.783 133.887,330.782 133.655 C 330.777 132.926,330.552 132.353,330.271 132.353 C 330.068 132.353,330.000 132.033,330.000 131.078 C 330.000 130.076,329.937 129.804,329.706 129.804 C 329.451 129.804,329.412 128.998,329.412 123.725 C 329.412 118.453,329.451 117.647,329.706 117.647 C 329.943 117.647,330.000 117.342,330.000 116.078 C 330.000 114.641,330.033 114.510,330.392 114.510 C 330.740 114.510,330.784 114.379,330.784 113.354 C 330.784 112.508,330.863 112.169,331.078 112.086 C 331.280 112.009,331.373 111.693,331.373 111.085 C 331.373 110.426,331.448 110.196,331.667 110.196 C 331.885 110.196,331.961 109.967,331.961 109.314 C 331.961 108.660,332.037 108.431,332.255 108.431 C 332.449 108.431,332.549 108.238,332.549 107.864 C 332.549 107.541,332.675 107.248,332.843 107.184 C 333.045 107.107,333.137 106.792,333.137 106.183 C 333.137 105.524,333.213 105.294,333.431 105.294 C 333.627 105.294,333.725 105.098,333.725 104.706 C 333.725 104.314,333.824 104.118,334.020 104.118 C 334.216 104.118,334.314 103.922,334.314 103.529 C 334.314 103.137,334.412 102.941,334.608 102.941 C 334.770 102.941,334.902 102.818,334.902 102.668 C 334.902 102.518,335.034 102.344,335.196 102.282 C 335.358 102.220,335.490 101.967,335.490 101.720 C 335.490 101.473,335.667 101.161,335.882 101.026 C 336.104 100.887,336.275 100.569,336.275 100.292 C 336.275 99.989,336.386 99.804,336.569 99.804 C 336.730 99.804,336.863 99.681,336.863 99.531 C 336.863 99.381,336.995 99.207,337.157 99.145 C 337.319 99.083,337.451 98.809,337.451 98.536 C 337.451 98.225,337.561 98.039,337.745 98.039 C 337.907 98.039,338.039 97.907,338.039 97.745 C 338.039 97.583,338.172 97.451,338.333 97.451 C 338.495 97.451,338.627 97.328,338.627 97.178 C 338.627 97.028,338.760 96.854,338.922 96.792 C 339.083 96.730,339.216 96.456,339.216 96.183 C 339.216 95.872,339.326 95.686,339.510 95.686 C 339.673 95.686,339.804 95.512,339.804 95.294 C 339.804 95.076,339.935 94.902,340.098 94.902 C 340.260 94.902,340.392 94.770,340.392 94.608 C 340.392 94.446,340.525 94.314,340.686 94.314 C 340.848 94.314,340.980 94.181,340.980 94.020 C 340.980 93.856,341.155 93.725,341.373 93.725 C 341.590 93.725,341.765 93.595,341.765 93.431 C 341.765 93.270,341.897 93.137,342.059 93.137 C 342.221 93.137,342.353 93.005,342.353 92.843 C 342.353 92.681,342.485 92.549,342.647 92.549 C 342.809 92.549,342.941 92.417,342.941 92.255 C 342.941 92.093,343.074 91.961,343.235 91.961 C 343.397 91.961,343.529 91.828,343.529 91.667 C 343.529 91.483,343.715 91.373,344.026 91.373 C 344.299 91.373,344.573 91.240,344.635 91.078 C 344.697 90.917,344.871 90.784,345.021 90.784 C 345.171 90.784,345.294 90.663,345.294 90.515 C 345.294 90.366,345.559 90.192,345.882 90.127 C 346.227 90.058,346.471 89.886,346.471 89.711 C 346.471 89.542,346.642 89.412,346.863 89.412 C 347.081 89.412,347.255 89.281,347.255 89.118 C 347.255 88.922,347.451 88.824,347.843 88.824 C 348.235 88.824,348.431 88.725,348.431 88.529 C 348.431 88.312,348.660 88.235,349.314 88.235 C 349.967 88.235,350.196 88.159,350.196 87.941 C 350.196 87.723,350.426 87.647,351.085 87.647 C 351.693 87.647,352.009 87.555,352.086 87.353 C 352.179 87.111,352.682 87.059,354.923 87.059 C 357.214 87.059,357.647 87.106,357.647 87.353 M77.255 87.941 C 77.255 88.178,77.560 88.235,78.824 88.235 C 80.087 88.235,80.392 88.292,80.392 88.529 C 80.392 88.747,80.621 88.824,81.275 88.824 C 82.152 88.824,82.157 88.827,82.157 89.510 C 82.157 89.989,82.068 90.196,81.863 90.196 C 81.645 90.196,81.569 90.425,81.569 91.078 C 81.569 91.732,81.492 91.961,81.275 91.961 C 81.057 91.961,80.980 92.190,80.980 92.843 C 80.980 93.497,80.904 93.725,80.686 93.725 C 80.465 93.725,80.392 93.963,80.392 94.683 C 80.392 95.476,80.325 95.658,80.000 95.743 C 79.688 95.825,79.608 96.011,79.608 96.648 C 79.608 97.231,79.527 97.451,79.314 97.451 C 79.096 97.451,79.020 97.680,79.020 98.333 C 79.020 98.987,78.943 99.216,78.725 99.216 C 78.503 99.216,78.431 99.455,78.431 100.196 C 78.431 100.937,78.359 101.176,78.137 101.176 C 77.919 101.176,77.843 101.405,77.843 102.059 C 77.843 102.712,77.767 102.941,77.549 102.941 C 77.331 102.941,77.255 103.170,77.255 103.824 C 77.255 104.477,77.179 104.706,76.961 104.706 C 76.739 104.706,76.667 104.946,76.667 105.686 C 76.667 106.427,76.595 106.667,76.373 106.667 C 76.155 106.667,76.078 106.895,76.078 107.549 C 76.078 108.203,76.002 108.431,75.784 108.431 C 75.566 108.431,75.490 108.660,75.490 109.314 C 75.490 109.967,75.414 110.196,75.196 110.196 C 74.974 110.196,74.902 110.436,74.902 111.176 C 74.902 112.026,74.850 112.157,74.510 112.157 C 74.176 112.157,74.118 112.288,74.118 113.039 C 74.118 113.693,74.041 113.922,73.824 113.922 C 73.630 113.922,73.529 114.115,73.529 114.489 C 73.529 114.812,73.403 115.105,73.235 115.169 C 73.034 115.246,72.941 115.561,72.941 116.170 C 72.941 116.829,72.865 117.059,72.647 117.059 C 72.429 117.059,72.353 117.288,72.353 117.941 C 72.353 118.595,72.277 118.824,72.059 118.824 C 71.842 118.824,71.765 119.050,71.765 119.685 C 71.765 120.270,71.670 120.583,71.471 120.659 C 71.269 120.736,71.176 121.052,71.176 121.661 C 71.176 122.320,71.101 122.549,70.882 122.549 C 70.654 122.549,70.588 122.810,70.588 123.725 C 70.588 124.641,70.523 124.902,70.294 124.902 C 70.077 124.902,70.000 125.128,70.000 125.763 C 70.000 126.348,69.906 126.661,69.706 126.738 C 69.490 126.820,69.412 127.160,69.412 128.010 C 69.412 129.005,69.356 129.185,69.020 129.272 C 68.688 129.359,68.627 129.540,68.627 130.448 C 68.627 131.162,68.529 131.602,68.333 131.765 C 68.164 131.905,68.039 132.332,68.039 132.769 C 68.039 133.314,67.956 133.529,67.745 133.529 C 67.583 133.529,67.451 133.662,67.451 133.824 C 67.451 133.985,67.319 134.118,67.157 134.118 C 66.995 134.118,66.863 134.250,66.863 134.412 C 66.863 134.574,66.730 134.706,66.569 134.706 C 66.407 134.706,66.275 134.838,66.275 135.000 C 66.275 135.196,66.078 135.294,65.686 135.294 C 65.294 135.294,65.098 135.392,65.098 135.588 C 65.098 135.750,64.966 135.882,64.804 135.882 C 64.642 135.882,64.510 136.015,64.510 136.176 C 64.510 136.338,64.375 136.471,64.210 136.471 C 64.044 136.471,63.858 136.603,63.796 136.765 C 63.734 136.926,63.464 137.059,63.196 137.059 C 62.873 137.059,62.674 137.191,62.606 137.451 C 62.533 137.729,62.338 137.843,61.938 137.843 C 61.566 137.843,61.373 137.944,61.373 138.137 C 61.373 138.333,61.176 138.431,60.784 138.431 C 60.392 138.431,60.196 138.529,60.196 138.725 C 60.196 138.922,60.000 139.020,59.608 139.020 C 59.216 139.020,59.020 139.118,59.020 139.314 C 59.020 139.555,58.682 139.608,57.157 139.608 C 55.632 139.608,55.294 139.661,55.294 139.902 C 55.294 140.124,55.054 140.196,54.314 140.196 C 53.573 140.196,53.333 140.124,53.333 139.902 C 53.333 139.662,53.007 139.608,51.569 139.608 C 50.131 139.608,49.804 139.553,49.804 139.314 C 49.804 139.092,49.564 139.020,48.824 139.020 C 48.083 139.020,47.843 138.948,47.843 138.725 C 47.843 138.529,47.647 138.431,47.255 138.431 C 46.863 138.431,46.667 138.333,46.667 138.137 C 46.667 137.975,46.534 137.843,46.373 137.843 C 46.211 137.843,46.078 137.709,46.078 137.544 C 46.078 137.369,45.835 137.196,45.490 137.127 C 45.167 137.063,44.902 136.888,44.902 136.740 C 44.902 136.592,44.770 136.471,44.608 136.471 C 44.424 136.471,44.314 136.285,44.314 135.974 C 44.314 135.701,44.181 135.427,44.020 135.365 C 43.858 135.303,43.725 135.129,43.725 134.979 C 43.725 134.829,43.593 134.706,43.431 134.706 C 43.218 134.706,43.137 134.486,43.137 133.903 C 43.137 133.265,43.057 133.079,42.745 132.998 C 42.420 132.913,42.353 132.731,42.353 131.938 C 42.353 131.218,42.280 130.980,42.059 130.980 C 41.804 130.980,41.765 130.240,41.765 125.490 C 41.765 120.741,41.804 120.000,42.059 120.000 C 42.293 120.000,42.353 119.711,42.353 118.573 C 42.353 117.389,42.420 117.089,42.745 116.810 C 43.063 116.538,43.137 116.232,43.137 115.198 C 43.137 114.194,43.200 113.922,43.431 113.922 C 43.648 113.922,43.725 113.695,43.725 113.060 C 43.725 112.475,43.820 112.163,44.020 112.086 C 44.221 112.009,44.314 111.693,44.314 111.085 C 44.314 110.426,44.390 110.196,44.608 110.196 C 44.804 110.196,44.902 110.000,44.902 109.608 C 44.902 109.216,45.000 109.020,45.196 109.020 C 45.414 109.020,45.490 108.791,45.490 108.137 C 45.490 107.484,45.566 107.255,45.784 107.255 C 45.990 107.255,46.078 107.048,46.078 106.569 C 46.078 106.089,46.167 105.882,46.373 105.882 C 46.569 105.882,46.667 105.686,46.667 105.294 C 46.667 104.902,46.765 104.706,46.961 104.706 C 47.157 104.706,47.255 104.510,47.255 104.118 C 47.255 103.725,47.353 103.529,47.549 103.529 C 47.711 103.529,47.843 103.397,47.843 103.235 C 47.843 103.074,47.968 102.941,48.122 102.941 C 48.275 102.941,48.457 102.684,48.526 102.369 C 48.595 102.055,48.778 101.749,48.934 101.689 C 49.093 101.628,49.216 101.323,49.216 100.987 C 49.216 100.589,49.313 100.392,49.510 100.392 C 49.672 100.392,49.804 100.260,49.804 100.098 C 49.804 99.936,49.936 99.804,50.098 99.804 C 50.260 99.804,50.392 99.672,50.392 99.510 C 50.392 99.348,50.525 99.216,50.686 99.216 C 50.882 99.216,50.980 99.020,50.980 98.627 C 50.980 98.235,51.078 98.039,51.275 98.039 C 51.436 98.039,51.569 97.907,51.569 97.745 C 51.569 97.583,51.701 97.451,51.863 97.451 C 52.025 97.451,52.157 97.319,52.157 97.157 C 52.157 96.995,52.289 96.863,52.451 96.863 C 52.613 96.863,52.745 96.730,52.745 96.569 C 52.745 96.407,52.843 96.275,52.963 96.275 C 53.264 96.275,54.110 95.446,54.114 95.147 C 54.116 95.012,54.250 94.902,54.412 94.902 C 54.574 94.902,54.706 94.770,54.706 94.608 C 54.706 94.446,54.838 94.314,55.000 94.314 C 55.162 94.314,55.294 94.181,55.294 94.020 C 55.294 93.824,55.490 93.725,55.882 93.725 C 56.275 93.725,56.471 93.627,56.471 93.431 C 56.471 93.270,56.603 93.137,56.765 93.137 C 56.926 93.137,57.059 93.005,57.059 92.843 C 57.059 92.681,57.191 92.549,57.353 92.549 C 57.515 92.549,57.647 92.417,57.647 92.255 C 57.647 92.059,57.843 91.961,58.235 91.961 C 58.627 91.961,58.824 91.863,58.824 91.667 C 58.824 91.505,58.959 91.373,59.124 91.373 C 59.289 91.373,59.475 91.240,59.537 91.078 C 59.599 90.917,59.864 90.784,60.125 90.784 C 60.387 90.784,60.651 90.652,60.713 90.490 C 60.778 90.323,61.070 90.196,61.394 90.196 C 61.830 90.196,61.961 90.106,61.961 89.804 C 61.961 89.499,62.092 89.412,62.549 89.412 C 62.941 89.412,63.137 89.314,63.137 89.118 C 63.137 88.895,63.377 88.824,64.118 88.824 C 64.858 88.824,65.098 88.752,65.098 88.529 C 65.098 88.301,65.359 88.235,66.275 88.235 C 67.190 88.235,67.451 88.170,67.451 87.941 C 67.451 87.688,68.126 87.647,72.353 87.647 C 76.580 87.647,77.255 87.688,77.255 87.941 " stroke="none" fill="#040404" fill-rule="evenodd"></path><path id="path2" d="" stroke="none" fill="#c0d81c" fill-rule="evenodd"></path><path id="path3" d="" stroke="none" fill="#40701c" fill-rule="evenodd"></path><path id="path4" d="" stroke="none" fill="#44041c" fill-rule="evenodd"></path></g></svg>